<?xml version="1.0" standalone="no"?>
<!DOCTYPE svg PUBLIC "-//W3C//DTD SVG 20010904//EN"
 "http://www.w3.org/TR/2001/REC-SVG-20010904/DTD/svg10.dtd">
<svg version="1.0" xmlns="http://www.w3.org/2000/svg"
 width="200.000000pt" height="200.000000pt" viewBox="0 0 200.000000 200.000000"
 preserveAspectRatio="xMidYMid meet">
<metadata>
Created by potrace 1.14, written by Peter Selinger 2001-2017
</metadata>
<g transform="translate(0.000000,200.000000) scale(0.100000,-0.100000)"
fill="#000000" stroke="none">
<path d="M125 1983 c7 -24 -9 -33 -18 -10 -3 6 -6 7 -6 1 -1 -15 57 -69 66
-61 3 4 1 7 -5 7 -7 0 -12 5 -12 11 0 6 7 8 16 5 10 -4 25 1 36 10 10 10 21
14 24 11 4 -4 -8 -20 -26 -37 -18 -16 -28 -30 -23 -30 12 0 83 73 83 85 0 6
-4 3 -10 -5 -5 -8 -12 -11 -16 -7 -4 3 -1 13 6 22 7 9 8 15 2 15 -6 0 -13 -6
-15 -12 -4 -10 -8 -9 -16 2 -10 13 -12 13 -21 0 -9 -13 -11 -13 -20 0 -9 13
-11 13 -20 0 -9 -13 -11 -13 -21 0 -8 12 -9 10 -4 -7z m48 -15 c4 -10 8 -9 16
2 5 8 13 11 17 8 3 -4 -1 -15 -11 -24 -14 -15 -18 -15 -26 -3 -8 12 -10 12
-18 -1 -6 -8 -13 -11 -16 -8 -7 7 15 37 27 38 3 0 9 -6 11 -12z"/>
<path d="M310 1992 c0 -10 78 -87 83 -81 2 2 -16 23 -40 47 -23 23 -43 39 -43
34z"/>
<path d="M350 1995 c0 -6 18 -28 40 -50 l40 -39 30 29 c33 32 34 34 20 55 -9
13 -11 13 -20 0 -9 -13 -11 -13 -20 0 -9 13 -11 13 -21 0 -8 -12 -12 -12 -16
-2 -4 10 -8 10 -20 1 -12 -10 -16 -10 -24 2 -5 8 -9 9 -9 4z m53 -27 c4 -10 8
-9 16 2 5 8 13 11 18 7 4 -5 1 -12 -7 -17 -8 -5 -11 -12 -7 -16 3 -4 15 4 26
17 11 13 22 21 26 17 4 -4 -5 -19 -19 -33 l-26 -26 -25 25 c-14 14 -25 28 -25
31 0 10 18 5 23 -7z"/>
<path d="M580 1994 c0 -20 56 -65 73 -58 10 3 17 2 17 -4 0 -6 -6 -13 -12 -15
-7 -3 -8 -6 -3 -6 6 -1 31 19 55 44 24 25 39 45 33 45 -6 0 -14 -6 -16 -12 -4
-10 -8 -9 -16 2 -10 13 -12 13 -21 0 -9 -13 -11 -13 -20 0 -9 13 -11 13 -20 0
-9 -13 -11 -13 -20 0 -9 13 -11 13 -20 0 -9 -13 -11 -13 -20 0 -5 8 -10 10
-10 4z m53 -26 c4 -10 8 -9 16 2 10 13 12 13 21 0 9 -13 11 -13 19 0 6 8 13
11 17 8 3 -4 -1 -15 -11 -24 -14 -15 -18 -15 -26 -3 -8 12 -10 12 -18 0 -8
-12 -12 -12 -25 2 -9 8 -16 18 -16 21 0 11 18 6 23 -6z"/>
<path d="M840 1985 c-11 -13 -9 -20 15 -45 16 -17 33 -30 38 -30 6 0 0 9 -13
20 -13 11 -20 23 -16 27 3 4 19 -5 34 -20 23 -23 25 -29 12 -37 -8 -5 -10 -10
-5 -10 6 0 28 18 50 40 33 34 36 41 25 55 -11 13 -15 13 -22 3 -6 -10 -10 -10
-18 2 -9 13 -11 13 -20 0 -9 -13 -11 -13 -20 0 -9 13 -11 13 -20 0 -8 -12 -12
-12 -18 -2 -7 10 -11 10 -22 -3z m20 -15 c0 -5 -4 -10 -10 -10 -5 0 -10 5 -10
10 0 6 5 10 10 10 6 0 10 -4 10 -10z m43 -2 c4 -10 8 -9 16 2 5 8 13 11 18 7
4 -5 1 -12 -7 -17 -8 -5 -11 -12 -7 -16 3 -4 15 4 26 17 11 13 22 21 26 17 4
-4 -5 -19 -19 -33 l-26 -26 -25 25 c-14 14 -25 28 -25 31 0 10 18 5 23 -7z"/>
<path d="M1000 1989 c0 -5 5 -7 10 -4 6 3 10 8 10 11 0 2 -4 4 -10 4 -5 0 -10
-5 -10 -11z"/>
<path d="M982 1933 c-34 -34 -59 -63 -54 -63 10 0 127 118 121 123 -2 2 -32
-25 -67 -60z"/>
<path d="M1125 1983 c4 -14 2 -23 -4 -23 -6 0 -11 5 -11 12 0 6 -3 8 -7 5 -7
-8 46 -67 60 -67 6 0 0 9 -13 20 -13 11 -20 23 -16 27 3 4 20 -6 36 -22 l30
-29 32 31 c27 27 30 34 18 48 -11 13 -15 13 -22 3 -6 -10 -10 -10 -18 2 -9 13
-11 13 -20 0 -9 -13 -11 -13 -20 0 -9 13 -11 13 -20 0 -9 -13 -11 -13 -21 0
-8 12 -9 10 -4 -7z m52 -18 c8 -9 13 -19 10 -22 -6 -5 -37 21 -37 31 0 10 11
6 27 -9z m33 5 c0 -5 -4 -10 -10 -10 -5 0 -10 5 -10 10 0 6 5 10 10 10 6 0 10
-4 10 -10z m40 5 c0 -12 -52 -57 -58 -51 -3 4 5 17 19 31 23 23 39 31 39 20z"/>
<path d="M1350 1995 c0 -5 12 -21 27 -37 14 -15 24 -31 20 -34 -4 -4 -16 3
-27 16 -11 13 -20 19 -20 13 0 -14 59 -67 67 -60 3 4 1 7 -5 7 -7 0 -12 5 -12
11 0 6 8 8 18 5 12 -4 28 4 47 24 24 25 26 32 15 45 -11 13 -15 13 -22 3 -6
-10 -10 -10 -18 2 -9 13 -11 13 -21 0 -8 -11 -12 -12 -16 -2 -2 6 -9 12 -15
12 -6 0 -5 -6 2 -15 21 -25 2 -30 -20 -5 -11 13 -20 19 -20 15z m90 -25 c0 -5
-4 -10 -10 -10 -5 0 -10 5 -10 10 0 6 5 10 10 10 6 0 10 -4 10 -10z m40 5 c0
-12 -52 -57 -58 -51 -3 4 5 17 19 31 23 23 39 31 39 20z m-60 -25 c0 -5 -4
-10 -10 -10 -5 0 -10 5 -10 10 0 6 5 10 10 10 6 0 10 -4 10 -10z"/>
<path d="M1606 1983 c-7 -17 39 -74 58 -72 6 0 5 3 -1 6 -7 2 -13 9 -13 15 0
6 7 7 17 4 10 -4 26 3 45 20 15 15 31 25 34 21 4 -3 -8 -20 -26 -37 -18 -16
-28 -30 -23 -30 5 0 22 13 38 30 24 25 26 32 15 45 -10 12 -15 13 -21 4 -6
-10 -11 -10 -22 0 -12 9 -16 9 -20 -1 -4 -10 -8 -10 -16 2 -10 13 -12 13 -22
0 -8 -11 -12 -12 -16 -2 -7 17 -20 15 -27 -5z m27 -15 c4 -10 8 -9 16 2 10 13
12 13 21 0 9 -13 11 -13 19 0 6 8 13 11 17 8 3 -4 -1 -15 -11 -24 -14 -15 -18
-15 -26 -3 -8 12 -10 12 -18 0 -8 -12 -12 -12 -25 2 -9 8 -16 18 -16 21 0 11
18 6 23 -6z"/>
<path d="M1860 1975 c13 -14 20 -28 17 -32 -4 -3 -16 4 -27 17 -11 13 -20 19
-20 13 0 -5 14 -22 30 -38 l30 -29 40 39 c22 22 40 44 40 50 0 5 -5 3 -10 -5
-9 -13 -11 -13 -20 0 -9 13 -11 13 -20 0 -9 -13 -11 -13 -20 0 -9 13 -11 13
-21 0 -8 -11 -12 -12 -16 -2 -2 6 -10 12 -16 12 -6 0 0 -11 13 -25z m43 -7 c4
-10 8 -9 16 2 5 8 13 11 17 8 3 -4 -6 -19 -21 -33 -14 -15 -29 -24 -33 -21 -3
4 0 12 8 17 11 8 12 12 3 16 -7 2 -13 9 -13 14 0 13 18 11 23 -3z"/>
<path d="M11 1963 c-7 -8 -11 -16 -8 -19 2 -2 10 2 17 11 17 20 9 27 -9 8z"/>
<path d="M560 1972 c0 -10 58 -67 63 -61 2 2 -11 19 -29 37 -19 18 -34 29 -34
24z"/>
<path d="M722 1944 c-18 -19 -29 -34 -24 -34 10 0 67 58 61 63 -2 2 -19 -11
-37 -29z"/>
<path d="M782 1964 c-16 -17 -16 -32 0 -16 9 9 18 6 40 -15 15 -15 29 -25 31
-22 2 2 -10 18 -27 35 -26 25 -34 28 -44 18z"/>
<path d="M1262 1944 c-18 -19 -29 -34 -24 -34 10 0 67 58 61 63 -2 2 -19 -11
-37 -29z"/>
<path d="M1472 1923 c-29 -29 -49 -53 -44 -53 10 0 107 98 101 103 -2 2 -28
-20 -57 -50z"/>
<path d="M1952 1944 c-18 -19 -29 -34 -24 -34 4 0 23 16 42 35 19 19 30 35 24
34 -5 0 -24 -16 -42 -35z"/>
<path d="M80 1952 c0 -10 78 -87 83 -81 2 2 -16 23 -40 47 -23 23 -43 39 -43
34z"/>
<path d="M301 1943 c-11 -12 -9 -19 10 -39 12 -13 25 -22 27 -19 3 3 -4 13
-16 23 -12 11 -19 22 -15 26 4 3 19 -6 35 -21 15 -14 29 -25 31 -22 2 2 -10
18 -27 35 -27 26 -34 28 -45 17z"/>
<path d="M462 1913 c-23 -23 -39 -43 -34 -43 10 0 87 78 81 83 -2 2 -23 -16
-47 -40z"/>
<path d="M1012 1923 c-18 -18 -29 -33 -24 -33 5 0 19 11 32 25 12 13 27 22 32
19 5 -3 -1 -14 -13 -25 -12 -10 -18 -19 -12 -19 5 0 18 9 28 20 15 16 15 21 4
33 -12 11 -19 8 -47 -20z"/>
<path d="M1580 1952 c0 -11 39 -47 44 -41 2 2 -7 14 -20 27 -13 12 -24 19 -24
14z"/>
<path d="M11 1923 c-7 -8 -11 -16 -8 -19 2 -2 10 2 17 11 17 20 9 27 -9 8z"/>
<path d="M212 1893 c-23 -23 -39 -43 -34 -43 10 0 87 78 81 83 -2 2 -23 -16
-47 -40z"/>
<path d="M725 1906 l-31 -31 33 -33 c18 -18 33 -29 33 -24 0 5 -11 19 -25 32
l-25 24 22 23 c16 17 24 20 35 12 17 -14 17 -2 1 15 -10 10 -19 6 -43 -18z"/>
<path d="M790 1932 c0 -11 39 -47 44 -41 2 2 -7 14 -20 27 -13 12 -24 19 -24
14z"/>
<path d="M1100 1931 c0 -10 19 -25 25 -20 1 2 -3 10 -11 17 -8 7 -14 8 -14 3z"/>
<path d="M1262 1904 c-18 -19 -29 -34 -24 -34 10 0 67 58 61 63 -2 2 -19 -11
-37 -29z"/>
<path d="M1330 1932 c0 -10 58 -67 63 -61 2 2 -11 19 -29 37 -19 18 -34 29
-34 24z"/>
<path d="M1495 1906 l-31 -31 31 -31 c25 -25 33 -28 43 -18 16 18 15 29 -2 15
-10 -8 -16 -8 -25 3 -9 10 -8 16 4 26 8 7 15 17 15 23 0 5 -8 0 -19 -11 -10
-12 -21 -19 -25 -15 -3 4 6 19 21 35 14 15 25 29 22 31 -2 2 -18 -10 -34 -27z"/>
<path d="M1560 1932 c0 -5 11 -19 25 -32 l25 -24 -27 -28 c-14 -15 -25 -29
-22 -31 2 -2 18 10 34 27 l31 31 -33 33 c-18 18 -33 29 -33 24z"/>
<path d="M1712 1893 c-23 -23 -39 -43 -34 -43 10 0 87 78 81 83 -2 2 -23 -16
-47 -40z"/>
<path d="M1745 1886 l-51 -51 33 -33 c18 -18 33 -29 33 -24 0 5 -11 19 -25 32
-23 22 -24 25 -9 41 16 18 18 17 43 -10 l26 -28 23 24 c12 13 19 23 14 23 -5
0 -15 -7 -22 -15 -12 -14 -16 -13 -37 7 l-23 22 27 28 c14 15 25 29 22 31 -2
2 -27 -19 -54 -47z"/>
<path d="M1830 1932 c0 -11 39 -47 44 -41 2 2 -7 14 -20 27 -13 12 -24 19 -24
14z"/>
<path d="M1952 1904 c-18 -19 -29 -34 -24 -34 4 0 23 16 42 35 19 19 30 35 24
34 -5 0 -24 -16 -42 -35z"/>
<path d="M482 1894 c-12 -13 -19 -24 -14 -24 11 0 47 39 41 44 -2 2 -14 -7
-27 -20z"/>
<path d="M11 1883 c-7 -8 -11 -16 -8 -19 2 -2 10 2 17 11 17 20 9 27 -9 8z"/>
<path d="M225 1866 l-31 -31 33 -33 c18 -18 33 -29 33 -24 0 5 -11 19 -25 32
l-25 24 27 28 c14 15 25 29 22 31 -2 2 -18 -10 -34 -27z"/>
<path d="M552 1884 c-7 -8 -8 -14 -3 -14 10 0 25 19 20 25 -2 1 -10 -3 -17
-11z"/>
<path d="M589 1883 c-13 -16 -12 -17 4 -4 9 7 17 15 17 17 0 8 -8 3 -21 -13z"/>
<path d="M640 1885 c7 -8 17 -15 22 -15 5 0 3 7 -6 15 -8 8 -18 15 -22 15 -3
0 -1 -7 6 -15z"/>
<path d="M791 1889 c3 -29 -1 -50 -11 -44 -14 9 -12 -4 3 -19 9 -10 17 -8 35
11 12 13 19 23 14 23 -4 0 -13 -5 -20 -12 -9 -9 -12 -8 -12 4 0 9 4 18 9 20 5
2 2 9 -6 17 -12 11 -14 11 -12 0z"/>
<path d="M870 1885 c7 -8 17 -15 22 -15 5 0 3 7 -6 15 -8 8 -18 15 -22 15 -3
0 -1 -7 6 -15z"/>
<path d="M1100 1893 c0 -20 19 -25 36 -9 8 9 11 16 5 16 -5 0 -13 -5 -17 -11
-4 -8 -9 -7 -15 2 -6 10 -9 10 -9 2z"/>
<path d="M1272 1874 c-12 -13 -19 -24 -14 -24 11 0 47 39 41 44 -2 2 -14 -7
-27 -20z"/>
<path d="M1662 1885 c-7 -8 -9 -15 -4 -15 5 0 15 7 22 15 16 19 -1 19 -18 0z"/>
<path d="M1830 1891 c0 -10 19 -25 25 -20 1 2 -3 10 -11 17 -8 7 -14 8 -14 3z"/>
<path d="M1974 1887 c-8 -9 -7 -16 2 -25 18 -16 29 -15 15 1 -8 10 -7 17 1 25
7 7 8 12 3 12 -6 -1 -15 -6 -21 -13z"/>
<path d="M313 1854 c0 -14 2 -21 6 -17 3 4 9 10 12 13 4 3 1 10 -6 17 -10 9
-12 6 -12 -13z"/>
<path d="M1140 1865 c-7 -8 -9 -15 -6 -15 4 0 14 7 22 15 9 8 11 15 6 15 -5 0
-15 -7 -22 -15z"/>
<path d="M1350 1871 c0 -10 19 -25 25 -20 1 2 -3 10 -11 17 -8 7 -14 8 -14 3z"/>
<path d="M14 1847 c-8 -9 -7 -17 4 -27 14 -13 15 -12 10 2 -4 8 -1 21 5 27 6
6 7 11 2 11 -6 -1 -15 -6 -21 -13z"/>
<path d="M102 1849 c3 -8 -6 -26 -20 -41 -36 -39 -24 -42 14 -4 27 28 29 34
16 46 -13 11 -14 11 -10 -1z"/>
<path d="M282 1827 l33 -33 31 31 c17 16 29 32 27 34 -2 3 -16 -8 -31 -22
l-28 -27 -24 25 c-13 14 -27 25 -32 25 -5 0 6 -15 24 -33z"/>
<path d="M514 1847 c-8 -9 -7 -16 1 -24 10 -9 13 -6 13 13 0 13 -1 24 -2 24 0
-1 -6 -6 -12 -13z"/>
<path d="M563 1834 c0 -14 2 -21 6 -17 3 4 9 10 12 13 4 3 1 10 -6 17 -10 9
-12 6 -12 -13z"/>
<path d="M599 1847 c8 -11 5 -19 -14 -37 -14 -13 -25 -27 -25 -32 0 -5 15 6
33 24 26 26 31 36 21 46 -17 16 -29 16 -15 -1z"/>
<path d="M816 1810 c-26 -27 -53 -50 -60 -50 -7 0 -25 14 -41 30 -16 17 -33
30 -38 30 -6 0 0 -9 13 -20 13 -11 20 -23 17 -27 -4 -3 -15 1 -25 11 -11 9
-26 14 -36 10 -9 -3 -16 -2 -16 4 0 6 6 13 13 15 6 3 7 6 1 6 -15 1 -69 -57
-61 -66 4 -3 7 -1 7 5 0 7 5 12 11 12 6 0 8 -8 5 -17 -6 -20 30 -70 41 -59 4
4 1 11 -6 16 -12 7 -11 11 3 26 15 14 19 15 26 3 5 -7 12 -10 17 -6 4 5 1 12
-7 17 -8 5 -11 12 -8 16 4 3 14 0 22 -9 14 -13 11 -20 -30 -61 l-46 -46 -27
29 -27 29 0 -43 c-1 -33 2 -40 11 -31 9 8 10 13 2 18 -6 4 -8 10 -4 14 4 5 17
-2 29 -14 20 -20 20 -22 5 -22 -10 0 -15 -4 -12 -10 3 -5 -1 -10 -10 -10 -9 0
-13 -5 -10 -10 4 -6 2 -9 -3 -8 -6 2 -10 -1 -10 -6 0 -5 -4 -12 -9 -15 -14
-10 -33 -60 -33 -86 0 -14 -4 -25 -9 -25 -5 0 -8 -12 -8 -26 -1 -15 -5 -29
-10 -33 -13 -9 -12 -274 1 -283 6 -5 2 -8 -10 -8 -11 0 -31 -11 -44 -25 -25
-26 -40 -32 -40 -14 0 5 5 7 10 4 6 -3 10 -2 10 2 0 12 -22 33 -34 33 -6 0 -4
-5 4 -10 12 -8 10 -14 -13 -38 -15 -15 -27 -32 -27 -37 0 -4 9 2 20 15 17 20
21 21 35 7 8 -9 11 -18 6 -22 -11 -6 -9 -44 3 -64 17 -27 -5 -22 -34 9 -16 18
-30 28 -30 22 0 -5 15 -23 34 -40 40 -35 70 -78 62 -90 -3 -4 4 -15 15 -22 21
-16 26 -40 7 -40 -10 0 -9 -3 1 -9 7 -5 14 -20 14 -35 0 -14 3 -23 8 -20 5 3
9 -2 9 -10 0 -21 -14 -20 -31 1 -12 13 -12 17 -1 21 10 3 7 11 -10 29 -19 20
-20 25 -8 33 8 5 11 10 6 10 -5 0 -18 -7 -28 -17 -10 -9 -21 -13 -25 -9 -4 4
-1 11 7 16 8 6 10 10 5 10 -16 0 -90 -78 -82 -86 4 -4 7 -2 7 4 0 7 5 12 11
12 6 0 8 -7 5 -16 -4 -10 1 -25 10 -36 10 -10 14 -21 11 -24 -4 -4 -19 7 -34
23 -23 25 -31 28 -41 17 -16 -18 -15 -29 1 -15 10 8 21 2 47 -24 19 -19 39
-35 44 -35 6 0 4 4 -4 10 -8 5 -11 12 -7 16 4 4 16 -1 27 -11 20 -18 21 -18
65 25 25 24 45 38 45 31 0 -7 -14 -26 -31 -42 -17 -16 -27 -29 -23 -29 4 0 23
14 40 31 34 33 72 35 60 3 -4 -9 -2 -22 2 -28 19 -24 21 -60 5 -78 -9 -10 -13
-21 -10 -25 4 -3 7 -1 7 5 0 7 8 12 17 12 14 0 12 -4 -7 -25 l-24 -25 39 -40
c22 -22 45 -38 51 -36 7 3 20 -4 29 -14 13 -14 13 -19 3 -23 -8 -4 -6 -6 5 -6
10 -1 16 -5 13 -10 -3 -5 4 -12 17 -15 30 -8 159 -123 147 -131 -12 -7 -42 20
-33 29 4 3 1 6 -5 6 -17 0 -15 -10 5 -32 9 -10 13 -21 10 -25 -4 -3 -16 4 -27
17 -11 13 -20 19 -20 14 0 -12 73 -84 84 -84 5 0 -1 9 -14 20 -13 11 -20 23
-16 27 3 4 20 -6 36 -22 l30 -29 30 29 c26 25 32 27 40 15 7 -10 10 -11 10 -2
0 6 7 12 15 12 8 0 15 -4 15 -10 0 -5 -4 -10 -10 -10 -5 0 -10 -5 -10 -12 0
-6 13 0 28 15 32 31 44 33 62 12 9 -10 9 -15 1 -15 -6 0 -11 -5 -11 -11 0 -8
4 -8 14 0 10 8 16 8 25 -3 7 -9 8 -17 2 -20 -5 -3 -12 0 -14 6 -3 8 -6 8 -6 2
-1 -15 37 -49 46 -41 3 4 1 7 -5 7 -7 0 -12 7 -12 15 0 8 5 15 11 15 6 0 -3
14 -21 30 -18 17 -31 32 -29 33 2 2 13 9 23 17 18 14 19 13 13 -4 -8 -19 16
-56 36 -56 6 0 0 9 -13 20 -13 11 -20 23 -17 27 4 3 15 -1 25 -11 11 -9 26
-14 36 -10 9 3 16 2 16 -4 0 -6 -6 -13 -12 -15 -7 -3 -8 -6 -2 -6 5 -1 23 13
39 29 l29 30 -29 30 c-16 16 -26 33 -22 36 3 4 24 -12 47 -36 22 -23 40 -38
40 -34 0 5 -17 25 -37 46 -20 21 -33 41 -29 45 4 4 12 1 17 -7 9 -12 10 -12 5
3 -7 21 68 93 93 90 9 -2 11 0 4 3 -22 10 -14 26 10 20 12 -3 16 -3 10 0 -7 3
-13 13 -13 22 0 12 4 11 23 -6 33 -31 43 -28 12 3 -14 14 -25 28 -25 31 0 9
35 -14 55 -36 16 -18 17 -23 5 -30 -8 -6 -10 -10 -4 -10 12 0 64 52 64 65 0 4
-9 -2 -20 -15 -11 -13 -23 -20 -27 -16 -4 3 6 20 22 36 l29 30 -31 32 c-27 27
-34 29 -47 18 -20 -16 -20 -1 -1 24 13 17 17 16 64 -33 28 -29 51 -49 51 -44
0 4 -25 33 -56 64 l-56 57 46 42 c25 23 46 47 46 52 0 5 -18 -9 -40 -32 -22
-23 -40 -37 -40 -32 0 6 22 32 49 60 40 41 48 56 47 83 0 22 9 48 25 72 25 35
27 36 42 19 13 -14 14 -21 5 -30 -16 -16 -1 -16 16 0 10 10 9 16 -9 34 -19 19
-22 30 -17 69 4 43 -11 115 -30 141 -4 6 -20 9 -35 6 l-27 -5 17 26 c9 14 17
30 17 34 0 4 -5 1 -10 -7 -8 -13 -10 -13 -10 2 0 9 5 20 10 23 6 3 10 12 10
18 0 7 -4 6 -10 -3 -7 -10 -10 19 -8 95 1 94 4 113 21 132 17 19 17 24 5 36
-11 12 -16 12 -26 1 -17 -18 -15 -29 2 -15 18 15 28 0 11 -16 -19 -18 -42 14
-40 54 2 21 -1 30 -8 26 -5 -3 -7 -2 -4 4 3 5 -16 35 -44 66 -28 32 -47 57
-43 57 4 0 13 -8 21 -17 11 -14 13 -14 10 -3 -2 8 -14 20 -26 26 -17 9 -19 13
-7 17 8 3 20 -1 26 -9 7 -8 18 -14 24 -14 6 0 4 5 -4 10 -13 8 -13 11 2 27 10
9 21 13 25 9 4 -4 1 -11 -7 -16 -8 -6 -10 -10 -5 -10 13 0 85 72 85 84 0 4
-14 -6 -30 -24 -17 -18 -33 -30 -37 -26 -3 3 2 15 12 26 18 20 18 21 -13 52
l-32 32 -30 -29 c-16 -16 -33 -26 -36 -22 -4 3 12 24 36 47 23 22 38 40 33 40
-5 0 -26 -18 -48 -40 l-39 -40 29 -30 c16 -16 26 -33 22 -36 -4 -4 -15 2 -25
14 -14 16 -22 18 -30 10 -7 -7 -15 -8 -19 -3 -5 4 -2 10 5 12 6 3 12 9 12 15
0 6 -7 4 -17 -3 -13 -11 -17 -11 -20 -1 -3 6 -9 10 -14 7 -5 -3 -19 0 -31 7
-13 7 -27 11 -33 9 -5 -1 -7 1 -3 5 4 4 3 13 -4 21 -24 29 3 24 32 -7 16 -18
30 -28 30 -23 0 5 -16 25 -35 43 -42 40 -85 47 -111 19 -20 -22 -37 -24 -53
-6 -6 8 -23 12 -42 9 -22 -3 -30 -1 -25 7 4 6 2 11 -3 11 -6 0 -11 -5 -11 -12
0 -9 -3 -9 -12 0 -7 7 -17 12 -22 12 -6 0 -4 -5 4 -10 13 -8 13 -10 -1 -10 -9
0 -24 9 -34 20 -10 11 -23 20 -29 20 -6 0 -5 -4 2 -9 12 -7 12 -12 1 -29 -14
-22 -38 -36 -47 -27 -3 3 5 14 18 25 13 11 19 20 13 20 -13 0 -54 -45 -48 -53
3 -4 2 -5 -2 -2 -3 3 -12 0 -20 -7 -7 -6 -16 -8 -19 -5 -4 3 12 24 36 47 23
22 38 40 32 40 -5 0 -30 -22 -56 -50z m124 10 c0 -5 -4 -10 -10 -10 -5 0 -10
5 -10 10 0 6 5 10 10 10 6 0 10 -4 10 -10z m233 -2 c4 -10 8 -9 16 2 5 8 13
11 18 7 4 -5 1 -12 -7 -18 -13 -8 -13 -10 0 -18 24 -16 6 -21 -33 -10 -41 11
-43 13 -24 34 15 18 24 19 30 3z m-540 -40 c4 -10 8 -9 16 2 5 8 13 11 17 8 3
-4 -6 -19 -21 -33 -14 -15 -29 -24 -33 -21 -3 4 0 12 8 17 11 8 12 12 3 16
-15 5 -17 23 -4 23 5 0 12 -6 14 -12z m823 -13 l25 -25 -36 -36 c-20 -20 -39
-33 -43 -29 -3 3 0 10 8 15 12 7 10 12 -9 29 l-23 20 24 25 c12 14 24 25 26
25 2 1 14 -10 28 -24z m-726 -11 c0 -8 -4 -12 -10 -9 -5 3 -10 10 -10 16 0 5
5 9 10 9 6 0 10 -7 10 -16z m645 -64 c11 -13 14 -20 6 -20 -13 0 -41 24 -41
34 0 12 18 5 35 -14z m-269 -265 c82 3 156 7 165 10 31 10 59 -29 59 -82 0
-48 26 -105 57 -128 23 -17 27 -87 14 -289 -25 -386 -54 -453 -262 -613 -107
-81 -176 -78 -298 15 -186 143 -218 221 -242 598 -14 220 -10 266 24 303 34
36 44 58 50 114 4 27 11 55 17 63 14 15 160 23 227 12 23 -4 108 -5 189 -3z
m-585 -365 c24 -14 25 -30 0 -23 -18 4 -51 -20 -51 -38 0 -15 17 -10 24 6 7
21 33 19 40 -2 3 -10 2 -34 -3 -53 -8 -37 0 -73 18 -85 17 -10 13 -25 -6 -25
-17 -1 -17 -1 0 -14 11 -8 17 -27 17 -51 0 -32 -2 -36 -15 -25 -8 7 -15 26
-15 43 0 16 -15 58 -34 91 -41 75 -51 117 -35 148 10 20 27 37 37 38 2 0 12
-5 23 -10z m1005 -4 c32 -24 24 -90 -19 -167 -21 -36 -37 -80 -37 -96 0 -17
-7 -36 -15 -43 -13 -11 -15 -7 -15 25 0 24 6 43 18 51 16 13 16 13 0 14 -20 0
-24 15 -7 25 19 13 28 53 19 87 -6 18 -7 41 -4 50 7 22 32 24 40 3 7 -16 24
-21 24 -6 0 18 -33 42 -51 38 -24 -6 -25 9 -1 22 23 14 25 13 48 -3z m-1123
-278 c4 -10 8 -10 15 1 9 12 13 12 28 -3 14 -15 15 -19 3 -27 -12 -8 -12 -10
1 -18 8 -6 11 -13 7 -17 -4 -4 -16 3 -27 16 -11 13 -23 20 -27 16 -4 -4 -1
-11 7 -17 13 -8 13 -10 0 -18 -8 -6 -11 -13 -7 -18 5 -4 12 -1 17 7 5 8 12 11
17 7 4 -5 1 -12 -7 -17 -8 -5 -11 -12 -7 -16 3 -4 15 4 26 17 11 13 22 21 26
17 4 -4 -5 -18 -19 -33 l-26 -26 -36 37 c-29 28 -34 38 -23 45 12 8 12 10 0
18 -12 8 -12 11 0 25 17 19 26 20 32 4z m1053 -243 l25 -25 -26 -25 -25 -26
-24 24 -24 24 22 26 c11 15 22 27 24 27 2 0 14 -11 28 -25z m-853 -22 c-4 -11
-3 -14 5 -9 7 4 12 3 12 -3 0 -18 -20 -22 -36 -7 -12 13 -13 18 -2 30 16 17
29 11 21 -11z m34 -48 c8 -9 13 -19 10 -22 -6 -5 -37 21 -37 31 0 10 11 6 27
-9z m589 -200 c23 -23 24 -26 9 -42 -14 -14 -18 -14 -26 -2 -8 12 -10 12 -18
-1 -8 -12 -13 -11 -30 9 -23 27 -27 36 -10 25 6 -3 15 0 20 7 8 12 11 12 18
-1 6 -8 13 -11 17 -7 4 4 -1 14 -12 22 -11 9 -14 14 -6 15 7 0 24 -11 38 -25z
m-340 -34 c-9 -13 19 -32 38 -25 20 8 21 -3 1 -22 -13 -13 -18 -12 -41 11 -22
22 -24 29 -13 36 18 11 22 11 15 0z m34 -11 c0 -5 -4 -10 -10 -10 -5 0 -10 5
-10 10 0 6 5 10 10 10 6 0 10 -4 10 -10z"/>
<path d="M1412 1754 c-11 -12 -10 -17 2 -30 15 -14 17 -14 32 0 14 14 14 18 0
31 -18 18 -18 18 -34 -1z m28 -14 c0 -5 -4 -10 -10 -10 -5 0 -10 5 -10 10 0 6
5 10 10 10 6 0 10 -4 10 -10z"/>
<path d="M683 1089 c-18 -12 -33 -25 -33 -30 0 -5 24 -9 53 -9 l52 -1 -37 -20
c-42 -22 -44 -25 -25 -43 11 -11 17 -10 36 6 24 18 24 18 35 -4 15 -29 48 -30
61 0 11 26 23 28 31 7 8 -19 24 -19 24 0 0 8 -12 21 -27 30 l-28 15 39 -2 c55
-4 58 18 4 32 -24 6 -65 18 -92 26 -61 17 -55 18 -93 -7z"/>
<path d="M1220 1095 c-25 -7 -64 -19 -87 -25 -24 -6 -43 -15 -43 -20 0 -6 19
-10 43 -10 l42 -1 -27 -15 c-16 -8 -28 -21 -28 -29 0 -19 16 -19 24 0 8 21 20
19 31 -7 13 -30 46 -29 61 0 11 22 11 22 35 4 19 -16 25 -17 36 -6 19 18 17
21 -24 43 l-38 20 53 1 c28 0 52 4 52 8 0 12 -57 52 -72 51 -7 0 -33 -6 -58
-14z"/>
<path d="M918 997 c21 -22 22 -33 22 -180 l0 -157 25 -6 c14 -4 29 -3 33 0 3
4 -4 9 -16 13 -21 5 -22 9 -22 157 0 159 -9 196 -47 196 -14 0 -13 -4 5 -23z"/>
<path d="M1056 998 c-18 -25 -22 -128 -6 -128 6 0 10 24 10 54 0 35 5 58 15
66 8 7 15 16 15 21 0 16 -19 9 -34 -13z"/>
<path d="M904 715 c-6 -14 3 -52 10 -44 2 2 6 16 10 32 7 29 -10 39 -20 12z"/>
<path d="M1041 687 c-22 -11 -31 -29 -13 -25 25 5 61 25 55 31 -9 9 -14 9 -42
-6z"/>
<path d="M840 547 c0 -17 97 -28 220 -27 83 1 110 6 110 21 0 6 -8 8 -17 5
-43 -12 -280 -5 -304 10 -5 3 -9 -1 -9 -9z"/>
<path d="M930 452 c0 -16 89 -27 103 -13 8 8 4 11 -15 11 -14 0 -40 3 -57 6
-19 4 -31 2 -31 -4z"/>
<path d="M380 760 c0 -5 5 -10 10 -10 6 0 10 5 10 10 0 6 -4 10 -10 10 -5 0
-10 -4 -10 -10z"/>
<path d="M420 760 c0 -5 5 -10 10 -10 6 0 10 5 10 10 0 6 -4 10 -10 10 -5 0
-10 -4 -10 -10z"/>
<path d="M380 720 c0 -5 5 -10 10 -10 6 0 10 5 10 10 0 6 -4 10 -10 10 -5 0
-10 -4 -10 -10z"/>
<path d="M1412 524 c-11 -12 -10 -17 2 -30 15 -14 17 -14 32 0 14 14 14 18 0
31 -18 18 -18 18 -34 -1z m28 -14 c0 -5 -4 -10 -10 -10 -5 0 -10 5 -10 10 0 6
5 10 10 10 6 0 10 -4 10 -10z"/>
<path d="M1170 240 c0 -5 5 -10 10 -10 6 0 10 5 10 10 0 6 -4 10 -10 10 -5 0
-10 -4 -10 -10z"/>
<path d="M1210 240 c0 -5 5 -10 10 -10 6 0 10 5 10 10 0 6 -4 10 -10 10 -5 0
-10 -4 -10 -10z"/>
<path d="M1052 1844 c-7 -8 -8 -14 -3 -14 10 0 25 19 20 25 -2 1 -10 -3 -17
-11z"/>
<path d="M1085 1849 c-11 -16 -1 -19 13 -3 7 8 8 14 3 14 -5 0 -13 -5 -16 -11z"/>
<path d="M1252 1817 c24 -24 45 -42 47 -40 6 5 -71 83 -81 83 -5 0 11 -20 34
-43z"/>
<path d="M1302 1846 c7 -8 15 -12 17 -11 5 6 -10 25 -20 25 -5 0 -4 -6 3 -14z"/>
<path d="M1332 1849 c3 -8 -1 -22 -10 -32 -22 -25 -11 -28 14 -3 18 19 19 24
6 36 -13 11 -14 11 -10 -1z"/>
<path d="M1365 1820 c-21 -22 -37 -41 -34 -43 2 -2 23 16 47 40 23 23 39 43
34 43 -4 0 -25 -18 -47 -40z"/>
<path d="M1942 1817 c24 -24 45 -42 47 -40 6 5 -71 83 -81 83 -5 0 11 -20 34
-43z"/>
<path d="M1964 1835 c14 -14 28 -25 32 -25 4 0 -3 11 -16 25 -13 14 -27 25
-32 25 -5 0 2 -11 16 -25z"/>
<path d="M115 1800 c-21 -22 -37 -41 -34 -43 2 -2 23 16 47 40 23 23 39 43 34
43 -4 0 -25 -18 -47 -40z"/>
<path d="M242 1826 c7 -8 15 -12 17 -11 5 6 -10 25 -20 25 -5 0 -4 -6 3 -14z"/>
<path d="M450 1810 c18 -17 30 -34 26 -37 -3 -4 -20 6 -36 22 l-30 29 -30 -29
c-20 -19 -28 -35 -24 -47 3 -10 1 -18 -5 -18 -6 0 -11 5 -11 12 0 6 -3 8 -7 4
-4 -3 11 -24 32 -46 27 -28 45 -38 57 -34 10 3 18 1 18 -5 0 -6 -5 -11 -12
-11 -6 0 -8 -3 -4 -7 7 -7 106 86 106 100 0 5 -18 -10 -40 -33 -23 -24 -44
-40 -47 -36 -4 3 6 19 20 34 15 16 27 32 27 38 0 5 -4 2 -10 -6 -5 -8 -12 -11
-16 -7 -4 4 1 16 11 27 18 20 18 21 -10 50 -16 17 -33 30 -38 30 -5 0 5 -14
23 -30z m-13 -26 c21 -21 23 -28 12 -35 -12 -8 -12 -10 0 -18 11 -7 9 -14 -13
-35 l-26 -27 -26 26 c-23 23 -24 27 -9 41 9 9 19 13 23 10 3 -4 0 -11 -8 -16
-8 -5 -11 -12 -7 -17 5 -4 12 -1 18 7 8 13 10 13 18 0 6 -8 13 -11 18 -7 4 5
1 12 -7 18 -13 8 -13 10 0 19 13 8 12 12 -7 25 -13 9 -23 20 -23 26 0 15 9 11
37 -17z m-37 -3 c0 -12 -29 -35 -36 -28 -7 6 17 36 29 37 4 0 7 -4 7 -9z m20
-21 c0 -5 -4 -10 -10 -10 -5 0 -10 5 -10 10 0 6 5 10 10 10 6 0 10 -4 10 -10z"/>
<path d="M400 1700 c0 -5 5 -10 10 -10 6 0 10 5 10 10 0 6 -4 10 -10 10 -5 0
-10 -4 -10 -10z"/>
<path d="M722 1806 c18 -18 35 -31 37 -29 6 5 -51 63 -61 63 -5 0 6 -15 24
-34z"/>
<path d="M1100 1825 c-7 -8 -9 -15 -6 -15 4 0 14 7 22 15 9 8 11 15 6 15 -5 0
-15 -7 -22 -15z"/>
<path d="M1282 1826 c7 -8 15 -12 17 -11 5 6 -10 25 -20 25 -5 0 -4 -6 3 -14z"/>
<path d="M1492 1806 c18 -18 35 -31 37 -29 6 5 -51 63 -61 63 -5 0 6 -15 24
-34z"/>
<path d="M1595 1820 c-26 -29 -15 -32 13 -4 12 13 19 24 14 24 -5 0 -17 -9
-27 -20z"/>
<path d="M1752 1816 c13 -13 25 -22 27 -20 6 5 -30 44 -41 44 -5 0 2 -11 14
-24z"/>
<path d="M1825 1820 c-26 -29 -15 -32 13 -4 12 13 19 24 14 24 -5 0 -17 -9
-27 -20z"/>
<path d="M178 1813 c19 -8 14 -25 -6 -19 -12 4 -26 -1 -37 -14 -17 -19 -17
-21 0 -40 10 -11 15 -23 12 -27 -4 -3 -16 4 -27 17 -11 13 -20 19 -20 14 0 -6
18 -27 40 -49 39 -38 40 -38 60 -20 11 10 23 15 27 11 4 -4 1 -11 -7 -16 -8
-6 -11 -10 -6 -10 13 0 66 51 66 63 0 6 -9 0 -20 -13 -11 -13 -23 -20 -27 -17
-3 4 2 16 12 27 10 11 15 23 12 27 -4 3 -7 1 -7 -5 0 -7 -5 -12 -11 -12 -6 0
-8 7 -5 17 7 17 -39 74 -58 72 -6 0 -5 -3 2 -6z m-5 -35 c4 -10 8 -10 15 1 9
12 13 12 27 -2 15 -16 15 -18 0 -33 -9 -9 -19 -13 -23 -10 -3 4 0 11 8 16 8 5
11 12 8 16 -4 3 -15 -1 -24 -11 -15 -14 -15 -18 -3 -26 12 -8 12 -10 -1 -18
-8 -6 -11 -13 -7 -17 3 -4 15 4 26 17 11 13 22 21 26 17 4 -4 -5 -19 -19 -33
-24 -24 -27 -25 -43 -10 -13 14 -14 18 -2 25 11 7 9 13 -10 29 -19 17 -21 22
-9 35 16 19 25 20 31 4z"/>
<path d="M150 1760 c0 -5 5 -10 10 -10 6 0 10 5 10 10 0 6 -4 10 -10 10 -5 0
-10 -4 -10 -10z"/>
<path d="M345 1800 c-26 -29 -15 -32 13 -4 12 13 19 24 14 24 -5 0 -17 -9 -27
-20z"/>
<path d="M1472 1786 c18 -18 35 -31 37 -29 6 5 -51 63 -61 63 -5 0 6 -15 24
-34z"/>
<path d="M1619 1804 c-27 -32 -19 -70 22 -110 l39 -38 30 29 c16 16 30 33 30
38 0 6 -9 0 -20 -13 -11 -13 -23 -20 -27 -17 -3 4 1 15 11 25 9 11 14 26 10
36 -3 9 -2 16 4 16 6 0 13 -6 15 -12 3 -7 6 -8 6 -2 1 15 -57 69 -66 61 -3 -4
-1 -7 5 -7 7 0 12 -4 12 -8 0 -5 -13 -9 -30 -9 -31 0 -40 11 -17 20 7 4 8 6 1
6 -6 1 -18 -6 -25 -15z m14 -26 c4 -10 8 -9 16 2 10 13 12 13 21 0 9 -13 11
-13 19 0 6 8 13 11 18 7 4 -5 1 -12 -7 -18 -13 -8 -13 -10 0 -18 12 -8 10 -13
-10 -31 -20 -17 -22 -23 -10 -30 8 -5 11 -12 8 -15 -4 -4 -23 10 -44 30 -29
30 -34 39 -23 47 11 7 11 11 2 15 -15 5 -17 23 -4 23 5 0 12 -6 14 -12z"/>
<path d="M1642 1754 c-11 -12 -10 -17 2 -30 15 -14 17 -14 32 0 14 14 14 18 0
31 -18 18 -18 18 -34 -1z m28 -14 c0 -5 -4 -10 -10 -10 -5 0 -10 5 -10 10 0 6
5 10 10 10 6 0 10 -4 10 -10z"/>
<path d="M1849 1803 c-22 -26 -18 -65 9 -95 14 -15 23 -31 19 -34 -4 -4 -16 3
-27 16 -11 13 -20 19 -20 13 0 -12 53 -63 66 -63 5 0 2 5 -6 10 -13 8 -13 11
2 27 10 9 21 13 25 9 4 -4 1 -11 -7 -16 -8 -6 -10 -10 -5 -10 6 0 29 18 50 40
l39 40 -42 42 -42 42 -30 -29 c-16 -16 -33 -26 -36 -22 -4 4 3 16 16 27 13 11
18 20 13 20 -6 0 -17 -7 -24 -17z m71 -2 c0 -6 -10 -17 -21 -25 -20 -14 -20
-16 -5 -31 15 -15 17 -15 33 0 13 14 14 18 2 25 -7 5 -10 12 -7 16 4 3 19 -6
33 -20 l26 -26 -27 -26 c-21 -22 -28 -24 -35 -13 -8 12 -10 12 -18 0 -7 -11
-14 -9 -35 12 l-27 27 33 34 c34 35 48 43 48 27z m0 -41 c0 -5 -4 -10 -10 -10
-5 0 -10 5 -10 10 0 6 5 10 10 10 6 0 10 -4 10 -10z"/>
<path d="M1860 1744 c0 -10 31 -36 37 -31 3 3 -2 13 -10 22 -16 15 -27 19 -27
9z"/>
<path d="M1931 1734 c-18 -21 -6 -30 14 -11 8 9 15 18 15 21 0 11 -15 5 -29
-10z"/>
<path d="M0 1806 c0 -4 7 -14 15 -22 8 -9 15 -11 15 -6 0 5 -7 15 -15 22 -8 7
-15 9 -15 6z"/>
<path d="M290 1786 c0 -4 7 -14 15 -22 8 -9 15 -11 15 -6 0 5 -7 15 -15 22 -8
7 -15 9 -15 6z"/>
<path d="M11 1733 c-7 -8 -11 -16 -8 -19 2 -2 10 2 17 11 17 20 9 27 -9 8z"/>
<path d="M32 1713 c-19 -19 -32 -36 -30 -39 2 -2 20 12 38 31 18 19 32 36 29
38 -2 2 -19 -11 -37 -30z"/>
<path d="M61 1702 c-13 -13 -21 -25 -19 -28 3 -2 13 5 23 16 19 21 19 20 57
-17 21 -20 39 -35 41 -32 2 2 -15 22 -37 44 l-41 41 -24 -24z"/>
<path d="M282 1693 c-18 -18 -29 -33 -24 -33 5 0 19 11 32 25 l24 25 28 -27
c15 -14 29 -25 31 -22 2 2 -10 18 -27 34 l-31 31 -33 -33z"/>
<path d="M580 1722 c0 -5 11 -19 25 -32 14 -13 25 -20 25 -16 0 4 -11 18 -25
32 -14 14 -25 21 -25 16z"/>
<path d="M650 1720 c0 -5 5 -10 10 -10 6 0 10 5 10 10 0 6 -4 10 -10 10 -5 0
-10 -4 -10 -10z"/>
<path d="M1580 1722 c0 -10 58 -67 63 -61 2 2 -11 19 -29 37 -19 18 -34 29
-34 24z"/>
<path d="M1732 1683 c-23 -23 -39 -43 -34 -43 10 0 87 78 81 83 -2 2 -23 -16
-47 -40z"/>
<path d="M482 1663 c-23 -23 -39 -43 -34 -43 10 0 87 78 81 83 -2 2 -23 -16
-47 -40z"/>
<path d="M1492 1673 c-18 -18 -28 -33 -24 -33 5 0 15 7 22 15 9 11 16 12 25 5
19 -16 42 15 23 33 -11 11 -18 8 -46 -20z m43 7 c3 -5 -1 -10 -10 -10 -9 0
-13 5 -10 10 3 6 8 10 10 10 2 0 7 -4 10 -10z"/>
<path d="M1560 1702 c0 -10 58 -67 63 -61 2 2 -11 19 -29 37 -19 18 -34 29
-34 24z"/>
<path d="M1781 1693 c-7 -8 -11 -16 -8 -19 2 -2 10 2 17 11 17 20 9 27 -9 8z"/>
<path d="M1952 1674 c-18 -19 -29 -34 -24 -34 4 0 23 16 42 35 19 19 30 35 24
34 -5 0 -24 -16 -42 -35z"/>
<path d="M80 1681 c0 -10 19 -25 25 -20 1 2 -3 10 -11 17 -8 7 -14 8 -14 3z"/>
<path d="M1810 1682 c0 -10 78 -87 83 -81 2 2 -16 23 -40 47 -23 23 -43 39
-43 34z"/>
<path d="M290 1662 c0 -5 11 -19 25 -32 23 -22 24 -25 8 -42 -23 -26 -12 -30
12 -4 l21 21 -33 33 c-18 18 -33 29 -33 24z"/>
<path d="M1744 1657 c-8 -9 -7 -16 1 -24 10 -9 13 -6 13 13 0 13 -1 24 -2 24
0 -1 -6 -6 -12 -13z"/>
<path d="M1962 1644 c-12 -13 -19 -24 -14 -24 11 0 47 39 41 44 -2 2 -14 -7
-27 -20z"/>
<path d="M222 1635 c-7 -8 -9 -15 -4 -15 5 0 15 7 22 15 16 19 -1 19 -18 0z"/>
<path d="M1484 1626 c-17 -18 -18 -24 -8 -34 17 -16 32 -16 16 0 -9 9 -8 16 5
30 23 26 12 30 -13 4z"/>
<path d="M12 1614 c-7 -8 -8 -14 -3 -14 10 0 25 19 20 25 -2 1 -10 -3 -17 -11z"/>
<path d="M87 1623 c-4 -3 -7 -11 -7 -17 0 -6 4 -4 10 4 5 8 12 11 16 7 4 -4 0
-15 -9 -25 -26 -28 -20 -36 7 -10 16 16 20 27 13 36 -11 13 -20 15 -30 5z"/>
<path d="M212 1587 c24 -24 45 -42 47 -40 6 5 -71 83 -81 83 -5 0 11 -20 34
-43z"/>
<path d="M244 1617 c-8 -9 -7 -16 2 -25 18 -16 29 -15 15 1 -8 10 -7 17 1 25
7 7 8 12 3 12 -6 -1 -15 -6 -21 -13z"/>
<path d="M474 1617 c-8 -9 -7 -16 2 -25 17 -15 32 -16 17 -1 -6 6 -9 18 -6 25
6 17 2 17 -13 1z"/>
<path d="M1514 1616 c-8 -8 -7 -15 2 -24 15 -14 28 -16 20 -3 -4 5 -2 11 3 13
5 1 4 8 -3 14 -8 8 -15 8 -22 0z"/>
<path d="M1598 1618 c8 -8 9 -15 1 -25 -14 -16 -3 -17 15 -1 11 10 11 15 0 25
-7 7 -16 13 -20 13 -5 0 -3 -5 4 -12z"/>
<path d="M1711 1587 c24 -24 46 -42 49 -40 6 5 -72 82 -84 83 -5 0 10 -19 35
-43z"/>
<path d="M1724 1615 c8 -8 18 -15 22 -15 3 0 1 7 -6 15 -7 8 -17 15 -22 15 -5
0 -3 -7 6 -15z"/>
<path d="M1832 1618 c4 -8 1 -21 -5 -27 -6 -6 -8 -11 -3 -11 4 0 13 6 20 13
11 10 10 15 -2 27 -14 13 -15 12 -10 -2z"/>
<path d="M1974 1617 c-8 -9 -7 -16 2 -25 18 -16 29 -15 15 1 -8 10 -7 17 1 25
7 7 8 12 3 12 -6 -1 -15 -6 -21 -13z"/>
<path d="M52 1596 c7 -8 15 -12 17 -11 5 6 -10 25 -20 25 -5 0 -4 -6 3 -14z"/>
<path d="M115 1570 c-21 -22 -37 -41 -34 -43 2 -2 23 16 47 40 23 23 39 43 34
43 -4 0 -25 -18 -47 -40z"/>
<path d="M282 1596 c7 -8 15 -12 17 -11 5 6 -10 25 -20 25 -5 0 -4 -6 3 -14z"/>
<path d="M464 1565 c25 -25 49 -45 53 -45 4 0 -13 20 -37 45 -24 25 -48 45
-52 45 -5 0 12 -20 36 -45z"/>
<path d="M1565 1599 c-11 -16 -1 -19 13 -3 7 8 8 14 3 14 -5 0 -13 -5 -16 -11z"/>
<path d="M1615 1570 c-21 -22 -36 -43 -32 -46 4 -4 7 -2 7 4 0 7 4 12 8 12 5
0 9 -13 9 -30 0 -31 -11 -40 -20 -17 -3 6 -6 7 -6 2 -1 -6 17 -29 39 -50 l40
-39 42 41 c41 41 42 42 23 63 -10 11 -15 23 -11 27 4 4 11 1 16 -7 6 -8 10
-10 10 -4 0 15 -58 69 -67 61 -3 -4 -1 -7 5 -7 7 0 12 -5 12 -11 0 -6 -7 -8
-16 -5 -10 4 -25 -1 -36 -10 -10 -10 -21 -14 -24 -11 -4 4 8 20 26 37 18 16
28 30 23 30 -5 0 -26 -18 -48 -40z m58 -22 c4 -10 8 -9 16 2 5 8 13 11 18 7 4
-5 1 -12 -7 -17 -12 -7 -10 -12 9 -29 l23 -20 -37 -36 c-20 -21 -39 -34 -43
-30 -4 4 4 16 17 27 21 16 22 21 10 29 -12 8 -12 10 1 18 8 6 11 13 7 18 -5 4
-12 1 -18 -7 -8 -13 -10 -13 -18 0 -6 8 -13 11 -18 7 -4 -5 -1 -12 7 -17 8 -5
11 -12 8 -16 -4 -3 -14 1 -23 10 -15 14 -14 18 7 40 26 28 34 31 41 14z m-33
-83 c17 -21 5 -31 -15 -12 -8 9 -15 18 -15 21 0 11 18 6 30 -9z m30 5 c0 -5
-4 -10 -10 -10 -5 0 -10 5 -10 10 0 6 5 10 10 10 6 0 10 -4 10 -10z"/>
<path d="M1650 1530 c0 -5 5 -10 10 -10 6 0 10 5 10 10 0 6 -4 10 -10 10 -5 0
-10 -4 -10 -10z"/>
<path d="M1690 1490 c0 -5 5 -10 10 -10 6 0 10 5 10 10 0 6 -4 10 -10 10 -5 0
-10 -4 -10 -10z"/>
<path d="M178 1583 c19 -8 14 -25 -6 -19 -12 4 -28 -4 -47 -24 l-29 -30 42
-43 42 -42 42 42 42 43 -39 40 c-21 22 -44 40 -50 39 -5 0 -4 -3 3 -6z m-5
-35 c4 -10 8 -10 15 1 8 11 15 9 36 -12 l27 -27 -36 -35 -35 -36 -26 26 c-14
15 -24 29 -21 32 4 3 13 -2 22 -11 19 -18 24 -19 44 -7 11 7 9 14 -13 36 l-27
26 -18 -23 c-11 -13 -22 -20 -26 -16 -7 7 34 56 47 57 3 1 9 -5 11 -11z m4
-43 c8 -9 13 -19 10 -22 -6 -5 -37 21 -37 31 0 10 11 6 27 -9z"/>
<path d="M190 1534 c0 -10 31 -36 37 -31 3 3 -2 13 -10 22 -16 15 -27 19 -27
9z"/>
<path d="M335 1560 c-16 -16 -27 -31 -24 -33 2 -2 19 11 37 29 18 19 29 34 24
34 -4 0 -21 -13 -37 -30z"/>
<path d="M375 1560 c-16 -16 -27 -31 -24 -33 2 -2 19 11 37 29 18 19 29 34 24
34 -4 0 -21 -13 -37 -30z"/>
<path d="M1472 1556 c18 -18 35 -31 37 -29 6 5 -51 63 -61 63 -5 0 6 -15 24
-34z"/>
<path d="M1845 1570 c-26 -29 -15 -32 13 -4 12 13 19 24 14 24 -5 0 -17 -9
-27 -20z"/>
<path d="M0 1576 c0 -4 7 -14 15 -22 8 -9 15 -11 15 -6 0 5 -7 15 -15 22 -8 7
-15 9 -15 6z"/>
<path d="M385 1530 l-39 -40 29 -30 c19 -20 35 -28 47 -24 10 3 18 1 18 -5 0
-6 -5 -11 -12 -11 -6 0 -8 -3 -5 -7 4 -3 20 6 36 21 35 34 36 74 2 110 -14 14
-27 26 -31 26 -3 0 -23 -18 -45 -40z m71 5 c23 -23 24 -27 9 -41 -9 -9 -19
-13 -23 -10 -3 4 0 11 8 16 13 8 11 12 -7 25 -13 9 -23 20 -23 26 0 15 9 11
36 -16z m-30 -10 c14 -13 14 -17 -1 -32 -14 -13 -18 -14 -25 -2 -5 7 -12 10
-16 6 -4 -3 4 -15 17 -26 13 -11 21 -22 17 -26 -4 -4 -18 5 -33 19 l-26 26 23
24 c28 30 26 29 44 11z m14 -55 c0 -5 -4 -10 -10 -10 -5 0 -10 5 -10 10 0 6 5
10 10 10 6 0 10 -4 10 -10z m40 4 c0 -3 -7 -12 -15 -21 -20 -19 -32 -9 -15 12
12 15 30 20 30 9z"/>
<path d="M400 1510 c0 -5 5 -10 10 -10 6 0 10 5 10 10 0 6 -4 10 -10 10 -5 0
-10 -4 -10 -10z"/>
<path d="M510 1555 c7 -9 15 -13 17 -11 7 7 -7 26 -19 26 -6 0 -6 -6 2 -15z"/>
<path d="M1512 1556 c7 -8 15 -12 17 -11 5 6 -10 25 -20 25 -5 0 -4 -6 3 -14z"/>
<path d="M1855 1540 c-16 -16 -25 -33 -22 -37 4 -3 7 -1 7 5 0 7 5 12 11 12 6
0 8 -7 5 -16 -4 -10 1 -25 10 -36 10 -10 14 -21 11 -25 -4 -3 -16 4 -27 17
-11 13 -20 19 -20 13 0 -14 59 -67 67 -60 3 4 1 7 -5 7 -7 0 -12 4 -12 8 0 5
14 9 30 9 36 0 37 -4 8 -28 -11 -11 -17 -19 -12 -19 6 0 30 20 54 45 24 25 40
45 36 45 -5 0 -17 -10 -27 -22 -11 -11 -22 -18 -26 -15 -3 4 1 15 11 25 9 11
14 26 10 36 -3 9 -2 16 4 16 6 0 13 -6 15 -12 3 -7 6 -8 6 -2 1 5 -12 23 -29
39 l-30 29 -30 -29 c-16 -16 -33 -26 -36 -22 -4 4 3 16 16 27 13 11 19 20 13
20 -5 0 -22 -13 -38 -30z m92 5 c8 -9 13 -19 9 -22 -7 -7 -36 16 -36 28 0 13
10 11 27 -6z m-11 -30 l25 -25 -26 -25 -25 -26 -25 25 -26 26 23 24 c13 14 24
25 26 25 2 1 14 -10 28 -24z"/>
<path d="M1892 1504 c-11 -12 -10 -17 2 -30 15 -14 17 -14 32 0 14 14 14 18 0
31 -18 18 -18 18 -34 -1z m28 -14 c0 -5 -4 -10 -10 -10 -5 0 -10 5 -10 10 0 6
5 10 10 10 6 0 10 -4 10 -10z"/>
<path d="M1974 1555 c8 -8 18 -15 22 -15 3 0 1 7 -6 15 -7 8 -17 15 -22 15 -5
0 -3 -7 6 -15z"/>
<path d="M80 1492 c0 -10 58 -67 63 -61 2 2 -11 19 -29 37 -19 18 -34 29 -34
24z"/>
<path d="M310 1492 c0 -10 98 -107 103 -101 2 2 -20 28 -50 57 -29 29 -53 49
-53 44z"/>
<path d="M11 1463 c-7 -8 -11 -16 -8 -19 2 -2 10 2 17 11 17 20 9 27 -9 8z"/>
<path d="M232 1454 c-12 -13 -19 -24 -14 -24 11 0 47 39 41 44 -2 2 -14 -7
-27 -20z"/>
<path d="M1712 1433 c-23 -23 -39 -43 -34 -43 10 0 87 78 81 83 -2 2 -23 -16
-47 -40z"/>
<path d="M242 1424 c-18 -19 -29 -34 -24 -34 10 0 67 58 61 63 -2 2 -19 -11
-37 -29z"/>
<path d="M1580 1451 c0 -10 19 -25 25 -20 1 2 -3 10 -11 17 -8 7 -14 8 -14 3z"/>
<path d="M1810 1452 c0 -10 58 -67 63 -61 2 2 -11 19 -29 37 -19 18 -34 29
-34 24z"/>
<path d="M11 1423 c-7 -8 -11 -16 -8 -19 2 -2 10 2 17 11 17 20 9 27 -9 8z"/>
<path d="M1722 1404 c-18 -19 -29 -34 -24 -34 10 0 67 58 61 63 -2 2 -19 -11
-37 -29z"/>
<path d="M1964 1417 l-20 -22 23 -23 c24 -24 43 -31 24 -9 -8 10 -7 17 1 25 9
9 9 12 0 12 -7 0 -12 -5 -12 -11 0 -5 -5 -7 -11 -4 -7 5 -2 16 12 31 12 13 18
24 13 23 -5 0 -18 -10 -30 -22z"/>
<path d="M80 1413 c0 -22 22 -26 38 -7 16 17 16 17 -1 4 -16 -12 -20 -12 -28
1 -5 9 -9 10 -9 2z"/>
<path d="M182 1405 c-7 -8 -9 -15 -4 -15 5 0 15 7 22 15 16 19 -1 19 -18 0z"/>
<path d="M310 1411 c0 -10 19 -25 25 -20 1 2 -3 10 -11 17 -8 7 -14 8 -14 3z"/>
<path d="M452 1405 c-7 -8 -9 -15 -4 -15 5 0 15 7 22 15 16 19 -1 19 -18 0z"/>
<path d="M1580 1412 c0 -11 39 -47 44 -41 2 2 -7 14 -20 27 -13 12 -24 19 -24
14z"/>
<path d="M1620 1405 c7 -8 17 -15 22 -15 5 0 3 7 -6 15 -8 8 -18 15 -22 15 -3
0 -1 -7 6 -15z"/>
<path d="M1752 1394 c-12 -13 -19 -24 -14 -24 11 0 47 39 41 44 -2 2 -14 -7
-27 -20z"/>
<path d="M1830 1391 c0 -10 19 -25 25 -20 1 2 -3 10 -11 17 -8 7 -14 8 -14 3z"/>
<path d="M0 1369 c0 -5 5 -7 10 -4 5 3 10 8 10 11 0 2 -4 4 -10 4 -5 0 -10 -5
-10 -11z"/>
<path d="M304 1366 c-8 -8 -8 -15 0 -22 8 -8 15 -7 24 2 14 15 16 28 3 20 -5
-4 -11 -2 -13 3 -1 5 -8 4 -14 -3z"/>
<path d="M444 1355 c14 -14 28 -25 32 -25 4 0 -3 11 -16 25 -13 14 -27 25 -32
25 -5 0 2 -11 16 -25z"/>
<path d="M1802 1364 c-7 -8 -8 -14 -3 -14 10 0 25 19 20 25 -2 1 -10 -3 -17
-11z"/>
<path d="M1870 1365 c-7 -8 -9 -15 -6 -15 4 0 14 7 22 15 9 8 11 15 6 15 -5 0
-15 -7 -22 -15z"/>
<path d="M1954 1345 c20 -19 39 -35 43 -35 4 0 -8 16 -27 35 -19 19 -38 35
-42 35 -5 0 7 -16 26 -35z"/>
<path d="M1555 1360 c-3 -5 -1 -10 4 -10 6 0 11 5 11 10 0 6 -2 10 -4 10 -3 0
-8 -4 -11 -10z"/>
<path d="M42 1336 c13 -13 25 -22 27 -20 6 5 -30 44 -41 44 -5 0 2 -11 14 -24z"/>
<path d="M85 1349 c-11 -16 -1 -19 13 -3 7 8 8 14 3 14 -5 0 -13 -5 -16 -11z"/>
<path d="M105 1330 c-16 -16 -27 -31 -24 -33 2 -2 19 11 37 29 18 19 29 34 24
34 -4 0 -21 -13 -37 -30z"/>
<path d="M232 1336 c13 -13 25 -22 27 -20 6 5 -30 44 -41 44 -5 0 2 -11 14
-24z"/>
<path d="M262 1346 c7 -8 15 -12 17 -11 5 6 -10 25 -20 25 -5 0 -4 -6 3 -14z"/>
<path d="M1575 1340 c-26 -29 -15 -32 13 -4 12 13 19 24 14 24 -5 0 -17 -9
-27 -20z"/>
<path d="M1605 1330 c-16 -16 -27 -31 -24 -33 2 -2 19 11 37 29 18 19 29 34
24 34 -4 0 -21 -13 -37 -30z"/>
<path d="M1722 1307 c29 -30 55 -52 57 -50 6 5 -91 103 -101 103 -5 0 15 -24
44 -53z"/>
<path d="M1732 1336 c13 -13 25 -22 27 -20 6 5 -30 44 -41 44 -5 0 2 -11 14
-24z"/>
<path d="M1762 1346 c7 -8 15 -12 17 -11 5 6 -10 25 -20 25 -5 0 -4 -6 3 -14z"/>
<path d="M1930 1330 c18 -17 30 -33 26 -37 -3 -3 -15 2 -26 12 -19 17 -21 17
-40 0 -11 -10 -23 -15 -27 -12 -3 4 4 16 17 27 13 11 19 20 13 20 -14 0 -67
-59 -60 -67 4 -3 7 -1 7 5 0 7 5 12 11 12 6 0 8 -7 5 -16 -4 -10 1 -25 10 -36
10 -10 14 -21 11 -25 -4 -3 -16 4 -27 17 -11 13 -20 19 -20 13 0 -5 13 -22 30
-38 29 -28 30 -28 50 -10 11 10 23 15 27 11 4 -4 1 -11 -7 -16 -8 -6 -11 -10
-6 -10 13 0 66 51 66 63 0 6 -9 0 -20 -13 -11 -13 -23 -20 -27 -17 -3 4 1 15
11 25 9 11 14 26 10 36 -3 9 -1 16 5 16 6 0 11 -5 11 -12 0 -6 3 -8 7 -4 7 7
-66 86 -80 86 -5 0 5 -14 23 -30z m6 -45 l25 -25 -36 -36 c-20 -20 -39 -33
-43 -29 -3 3 0 10 8 15 12 7 10 12 -9 29 l-23 20 24 25 c12 14 24 25 26 25 2
1 14 -10 28 -24z"/>
<path d="M1892 1274 c-11 -12 -10 -17 2 -30 15 -14 17 -14 32 0 14 14 14 18 0
31 -18 18 -18 18 -34 -1z m28 -14 c0 -5 -4 -10 -10 -10 -5 0 -10 5 -10 10 0 6
5 10 10 10 6 0 10 -4 10 -10z"/>
<path d="M22 1316 c13 -13 25 -22 27 -20 6 5 -30 44 -41 44 -5 0 2 -11 14 -24z"/>
<path d="M125 1310 c-16 -16 -27 -31 -24 -33 2 -2 19 11 37 29 18 19 29 34 24
34 -4 0 -21 -13 -37 -30z"/>
<path d="M210 1320 c13 -11 20 -23 17 -27 -4 -3 -16 2 -27 12 -20 18 -21 18
-52 -13 -31 -31 -31 -32 -13 -52 10 -11 15 -23 12 -27 -4 -3 -16 4 -27 17 -11
13 -20 19 -20 14 0 -6 18 -28 40 -49 l40 -39 50 49 c28 27 50 53 50 59 0 5 -8
-1 -19 -12 -26 -30 -30 -28 -26 16 3 36 -16 72 -38 72 -6 0 0 -9 13 -20z m-4
-35 c23 -23 24 -27 9 -41 -9 -9 -19 -13 -23 -10 -3 4 0 11 8 16 8 5 11 12 8
16 -4 3 -15 -1 -24 -11 -15 -14 -15 -18 -3 -26 12 -8 12 -10 -1 -18 -8 -6 -11
-13 -7 -17 3 -4 15 4 26 17 11 13 22 21 26 17 4 -4 -5 -19 -19 -33 -24 -24
-27 -25 -43 -10 -13 14 -14 18 -2 25 11 7 9 13 -10 29 l-23 20 24 25 c12 14
24 25 26 25 2 1 14 -10 28 -24z"/>
<path d="M161 1274 c-18 -21 -6 -30 14 -11 8 9 15 18 15 21 0 11 -15 5 -29
-10z"/>
<path d="M325 1320 c-26 -29 -15 -32 13 -4 12 13 19 24 14 24 -5 0 -17 -9 -27
-20z"/>
<path d="M444 1315 c14 -14 28 -25 32 -25 4 0 -3 11 -16 25 -13 14 -27 25 -32
25 -5 0 2 -11 16 -25z"/>
<path d="M1525 1329 c-11 -16 -1 -19 13 -3 7 8 8 14 3 14 -5 0 -13 -5 -16 -11z"/>
<path d="M1629 1314 c-13 -14 -24 -38 -25 -52 -1 -35 43 -84 68 -76 10 3 18 1
18 -5 0 -6 -5 -11 -12 -11 -6 0 -8 -3 -4 -7 3 -4 24 11 46 32 22 21 42 36 46
32 3 -3 -17 -29 -45 -57 -29 -27 -48 -50 -44 -50 5 0 31 22 58 50 41 41 46 51
36 64 -12 14 -17 12 -42 -16 -16 -17 -33 -28 -36 -24 -4 3 6 19 20 34 15 16
27 32 27 37 0 4 -9 -2 -20 -15 -11 -13 -23 -20 -27 -17 -3 4 2 16 12 27 17 19
17 21 0 40 -11 13 -25 18 -37 14 -20 -6 -25 11 -5 19 6 3 7 6 1 6 -6 1 -21
-11 -35 -25z m24 -16 c4 -10 8 -10 15 1 9 12 13 12 27 -3 16 -16 16 -18 -6
-37 -19 -16 -21 -22 -10 -29 12 -7 11 -11 -2 -25 -16 -15 -19 -14 -43 10 -14
14 -23 29 -19 33 4 4 15 -4 26 -17 11 -13 23 -21 26 -17 4 4 1 11 -7 17 -13 8
-13 10 -1 18 12 8 12 12 -3 26 -9 10 -20 14 -24 11 -3 -4 0 -11 8 -16 8 -5 11
-12 8 -16 -4 -3 -14 1 -23 10 -13 13 -14 18 -3 30 16 19 25 20 31 4z"/>
<path d="M1670 1280 c0 -5 5 -10 10 -10 6 0 10 5 10 10 0 6 -4 10 -10 10 -5 0
-10 -4 -10 -10z"/>
<path d="M1835 1329 c-11 -16 -1 -19 13 -3 7 8 8 14 3 14 -5 0 -13 -5 -16 -11z"/>
<path d="M343 1298 c-9 -10 -13 -21 -10 -25 4 -3 7 -1 7 5 0 7 5 12 11 12 6 0
8 -7 5 -17 -5 -11 6 -29 31 -55 31 -32 35 -40 23 -48 -8 -5 -10 -10 -4 -10 5
0 25 16 44 35 19 19 29 35 23 35 -6 0 -13 -6 -16 -12 -2 -7 -8 -10 -12 -6 -5
5 0 17 10 28 18 20 18 21 -9 49 -31 33 -77 37 -103 9z m40 0 c4 -10 8 -10 15
1 8 11 15 9 37 -13 l27 -27 -23 -20 c-19 -17 -21 -22 -9 -29 8 -5 11 -12 8
-15 -4 -4 -23 10 -44 30 -29 30 -34 39 -23 47 11 7 11 11 2 15 -7 2 -13 9 -13
14 0 13 18 11 23 -3z"/>
<path d="M392 1274 c-11 -12 -10 -17 2 -30 15 -14 17 -14 32 0 14 14 14 18 0
31 -18 18 -18 18 -34 -1z m28 -14 c0 -5 -4 -10 -10 -10 -5 0 -10 5 -10 10 0 6
5 10 10 10 6 0 10 -4 10 -10z"/>
<path d="M0 1306 c0 -4 7 -14 15 -22 8 -9 15 -11 15 -6 0 5 -7 15 -15 22 -8 7
-15 9 -15 6z"/>
<path d="M1532 1298 c-7 -7 -12 -16 -12 -21 0 -5 7 -1 16 8 9 9 14 18 12 20
-2 3 -10 -1 -16 -7z"/>
<path d="M21 1243 c-12 -13 -21 -26 -19 -29 3 -2 15 7 28 21 13 14 22 27 19
29 -2 2 -15 -8 -28 -21z"/>
<path d="M32 1213 c-19 -19 -32 -36 -30 -39 2 -2 20 12 38 31 18 19 32 36 29
38 -2 2 -19 -11 -37 -30z"/>
<path d="M252 1203 c-23 -23 -39 -43 -34 -43 10 0 87 78 81 83 -2 2 -23 -16
-47 -40z"/>
<path d="M330 1242 c0 -10 58 -67 63 -61 2 2 -11 19 -29 37 -19 18 -34 29 -34
24z"/>
<path d="M1520 1242 c0 -5 11 -19 25 -32 14 -13 25 -20 25 -16 0 4 -11 18 -25
32 -14 14 -25 21 -25 16z"/>
<path d="M80 1222 c0 -11 39 -47 44 -41 2 2 -7 14 -20 27 -13 12 -24 19 -24
14z"/>
<path d="M302 1214 c-17 -18 -15 -29 2 -15 10 8 16 9 21 1 3 -5 1 -10 -4 -10
-6 0 -11 -5 -11 -12 0 -8 6 -6 16 4 15 14 15 19 3 31 -12 11 -17 12 -27 1z"/>
<path d="M1580 1222 c0 -10 58 -67 63 -61 2 2 -11 19 -29 37 -19 18 -34 29
-34 24z"/>
<path d="M1810 1222 c0 -10 78 -87 83 -81 2 2 -16 23 -40 47 -23 23 -43 39
-43 34z"/>
<path d="M1962 1184 c-12 -13 -19 -24 -14 -24 5 0 15 7 22 15 7 8 16 13 19 10
4 -2 8 2 8 10 0 20 -8 18 -35 -11z"/>
<path d="M350 1181 c0 -10 19 -25 25 -20 1 2 -3 10 -11 17 -8 7 -14 8 -14 3z"/>
<path d="M442 1164 c-12 -13 -19 -24 -14 -24 5 0 19 11 32 25 13 14 19 25 14
24 -5 0 -19 -11 -32 -25z"/>
<path d="M1580 1182 c0 -11 39 -47 44 -41 2 2 -7 14 -20 27 -13 12 -24 19 -24
14z"/>
<path d="M1810 1182 c0 -10 58 -67 63 -61 2 2 -11 19 -29 37 -19 18 -34 29
-34 24z"/>
<path d="M100 1166 c0 -2 8 -10 18 -17 15 -13 16 -12 3 4 -13 16 -21 21 -21
13z"/>
<path d="M330 1161 c0 -10 19 -25 25 -20 1 2 -3 10 -11 17 -8 7 -14 8 -14 3z"/>
<path d="M1735 1147 l-21 -22 33 -33 c18 -18 33 -29 33 -24 0 5 -11 19 -25 32
-13 12 -22 27 -18 33 3 5 9 4 13 -3 5 -7 8 -2 8 14 0 14 -1 26 -2 25 0 0 -10
-10 -21 -22z"/>
<path d="M1964 1146 l-20 -21 24 -24 c13 -12 25 -21 28 -19 2 3 -5 13 -16 23
-19 17 -19 19 -3 37 23 26 12 30 -13 4z"/>
<path d="M313 1145 c1 -11 -2 -26 -6 -32 -11 -18 1 -16 19 2 9 8 11 15 5 15
-5 0 -12 8 -15 18 -4 13 -4 13 -3 -3z"/>
<path d="M222 1135 c-7 -8 -9 -15 -4 -15 5 0 15 7 22 15 16 19 -1 19 -18 0z"/>
<path d="M264 1137 c-8 -9 -7 -16 1 -24 10 -9 13 -6 13 13 0 13 -1 24 -2 24 0
-1 -6 -6 -12 -13z"/>
<path d="M452 1135 c-7 -8 -9 -15 -4 -15 5 0 15 7 22 15 16 19 -1 19 -18 0z"/>
<path d="M75 1110 c-26 -29 -15 -32 13 -4 12 13 19 24 14 24 -5 0 -17 -9 -27
-20z"/>
<path d="M105 1100 c-16 -16 -27 -31 -24 -33 2 -2 19 11 37 29 18 19 29 34 24
34 -4 0 -21 -13 -37 -30z"/>
<path d="M200 1100 c18 -17 30 -33 26 -37 -3 -3 -15 2 -26 12 -20 18 -21 18
-52 -13 l-32 -32 29 -30 c16 -16 26 -33 22 -36 -3 -4 -24 12 -47 36 -22 23
-40 38 -40 33 0 -5 18 -26 40 -48 l40 -39 30 29 c16 16 33 26 36 22 4 -3 -8
-20 -26 -37 -18 -16 -28 -30 -23 -30 12 0 83 73 83 85 0 6 -4 3 -10 -5 -5 -8
-12 -11 -16 -7 -4 4 1 16 11 27 18 20 18 21 -20 60 -22 22 -43 40 -48 40 -5 0
5 -14 23 -30z m2 -42 c16 -19 21 -20 28 -8 5 8 12 11 15 8 4 -4 -9 -23 -29
-43 l-36 -36 -25 26 -26 25 23 24 c29 31 27 31 50 4z"/>
<path d="M162 1044 c-11 -12 -10 -17 2 -30 15 -14 17 -14 32 0 14 14 14 18 0
31 -18 18 -18 18 -34 -1z m28 -14 c0 -5 -4 -10 -10 -10 -5 0 -10 5 -10 10 0 6
5 10 10 10 6 0 10 -4 10 -10z"/>
<path d="M1585 1119 c-11 -16 -1 -19 13 -3 7 8 8 14 3 14 -5 0 -13 -5 -16 -11z"/>
<path d="M1605 1100 c-16 -16 -27 -31 -24 -33 2 -2 19 11 37 29 18 19 29 34
24 34 -4 0 -21 -13 -37 -30z"/>
<path d="M0 1110 c0 -5 5 -10 11 -10 5 0 7 5 4 10 -3 6 -8 10 -11 10 -2 0 -4
-4 -4 -10z"/>
<path d="M125 1080 c-16 -16 -27 -31 -24 -33 2 -2 19 11 37 29 18 19 29 34 24
34 -4 0 -21 -13 -37 -30z"/>
<path d="M325 1090 c-26 -29 -15 -32 13 -4 12 13 19 24 14 24 -5 0 -17 -9 -27
-20z"/>
<path d="M425 1100 c3 -5 8 -10 11 -10 2 0 4 5 4 10 0 6 -5 10 -11 10 -5 0 -7
-4 -4 -10z"/>
<path d="M1722 1076 c18 -18 35 -31 37 -29 6 5 -51 63 -61 63 -5 0 6 -15 24
-34z"/>
<path d="M1835 1099 c-11 -16 -1 -19 13 -3 7 8 8 14 3 14 -5 0 -13 -5 -16 -11z"/>
<path d="M262 1076 c7 -8 15 -12 17 -11 5 6 -10 25 -20 25 -5 0 -4 -6 3 -14z"/>
<path d="M345 1070 c-26 -29 -15 -32 13 -4 12 13 19 24 14 24 -5 0 -17 -9 -27
-20z"/>
<path d="M1610 1065 c-13 -14 -18 -25 -11 -25 7 0 10 -7 7 -18 -4 -12 4 -28
24 -47 l30 -29 30 29 c16 16 33 26 36 22 4 -4 -3 -16 -16 -27 -13 -11 -19 -20
-13 -20 5 0 22 14 38 30 l29 30 -39 40 c-22 22 -43 40 -49 40 -5 0 1 -9 14
-20 13 -11 20 -23 16 -27 -3 -4 -19 6 -34 20 -16 15 -30 27 -33 27 -3 0 -16
-11 -29 -25z m40 6 c0 -12 -29 -35 -36 -28 -7 6 17 36 29 37 4 0 7 -4 7 -9z
m32 -33 c15 -18 21 -20 28 -9 7 12 11 11 25 -3 10 -9 14 -20 11 -24 -4 -3 -11
0 -16 8 -7 11 -15 7 -39 -19 l-30 -32 -27 26 c-29 29 -25 48 4 21 19 -16 52
-13 52 5 0 14 -18 11 -23 -3 -2 -7 -8 -9 -13 -5 -5 4 -2 12 6 17 8 5 11 12 7
17 -5 4 -12 1 -17 -7 -5 -8 -12 -11 -15 -8 -6 6 14 37 24 38 2 0 12 -10 23
-22z"/>
<path d="M1845 1070 c-18 -20 -18 -21 10 -50 16 -16 26 -33 22 -36 -4 -4 -16
3 -27 16 -11 13 -20 19 -20 13 0 -5 14 -22 30 -38 l30 -29 30 29 c16 16 33 26
36 22 4 -3 -8 -20 -26 -37 -18 -16 -28 -30 -23 -30 14 0 87 79 80 86 -4 4 -7
2 -7 -4 0 -7 -5 -12 -11 -12 -6 0 -8 8 -5 18 4 12 -4 28 -24 47 l-30 29 -30
-29 c-16 -16 -33 -26 -36 -22 -4 4 3 16 16 27 13 11 19 20 13 20 -5 0 -18 -9
-28 -20z m92 -16 c14 -14 22 -28 18 -32 -4 -4 -15 4 -26 17 -11 13 -23 21 -26
17 -4 -4 -1 -11 7 -17 13 -8 13 -10 0 -18 -8 -6 -11 -13 -7 -18 5 -4 12 -1 17
7 5 8 12 11 16 8 3 -4 -6 -19 -21 -33 -14 -15 -29 -24 -33 -21 -3 4 0 11 8 16
12 7 10 12 -9 29 l-23 20 24 25 c12 14 24 25 26 25 2 1 14 -11 29 -25z"/>
<path d="M1880 1030 c0 -5 5 -10 10 -10 6 0 10 5 10 10 0 6 -4 10 -10 10 -5 0
-10 -4 -10 -10z"/>
<path d="M1962 1066 c13 -13 25 -22 27 -20 6 5 -30 44 -41 44 -5 0 2 -11 14
-24z"/>
<path d="M380 1025 c-11 -13 -11 -19 3 -33 10 -9 17 -11 17 -5 0 6 -6 14 -12
16 -10 4 -9 8 2 16 8 5 12 13 9 16 -4 3 -12 -2 -19 -10z"/>
<path d="M80 992 c0 -10 78 -87 83 -81 2 2 -16 23 -40 47 -23 23 -43 39 -43
34z"/>
<path d="M302 984 c-16 -18 -15 -29 1 -15 10 8 17 7 25 -1 7 -7 12 -9 12 -4 0
4 -6 13 -13 20 -10 11 -15 11 -25 0z"/>
<path d="M1722 943 c-29 -29 -49 -53 -44 -53 10 0 107 98 101 103 -2 2 -28
-20 -57 -50z"/>
<path d="M212 933 c-23 -23 -39 -43 -34 -43 10 0 87 78 81 83 -2 2 -23 -16
-47 -40z"/>
<path d="M1600 971 c0 -10 19 -25 25 -20 1 2 -3 10 -11 17 -8 7 -14 8 -14 3z"/>
<path d="M1830 972 c0 -11 39 -47 44 -41 2 2 -7 14 -20 27 -13 12 -24 19 -24
14z"/>
<path d="M1952 944 c-18 -19 -29 -34 -24 -34 4 0 23 16 42 35 19 19 30 35 24
34 -5 0 -24 -16 -42 -35z"/>
<path d="M310 952 c0 -5 7 -15 15 -22 8 -7 15 -9 15 -6 0 4 -7 14 -15 22 -8 9
-15 11 -15 6z"/>
<path d="M354 937 c1 -20 4 -23 14 -15 7 6 9 14 5 17 -4 4 -11 10 -14 14 -4 5
-6 -3 -5 -16z"/>
<path d="M1732 913 c-23 -23 -39 -43 -34 -43 5 0 17 9 27 20 14 16 21 18 28 8
6 -10 7 -9 4 2 -2 8 2 23 11 33 32 36 5 22 -36 -20z"/>
<path d="M222 904 c-18 -19 -29 -34 -24 -34 10 0 67 58 61 63 -2 2 -19 -11
-37 -29z"/>
<path d="M1600 925 c7 -8 17 -15 22 -15 5 0 3 7 -6 15 -8 8 -18 15 -22 15 -3
0 -1 -7 6 -15z"/>
<path d="M1643 923 c16 -16 18 -16 34 0 10 9 12 17 6 17 -6 0 -14 -6 -17 -12
-5 -10 -7 -10 -12 0 -3 6 -11 12 -17 12 -6 0 -4 -8 6 -17z"/>
<path d="M1830 932 c0 -11 39 -47 44 -41 2 2 -7 14 -20 27 -13 12 -24 19 -24
14z"/>
<path d="M1962 914 c-22 -24 -17 -35 6 -12 9 9 12 9 12 0 0 -7 5 -12 11 -12 8
0 8 4 0 13 -8 10 -7 17 1 25 7 7 8 12 3 11 -6 0 -20 -11 -33 -25z"/>
<path d="M0 909 c0 -5 5 -7 10 -4 5 3 10 8 10 11 0 2 -4 4 -10 4 -5 0 -10 -5
-10 -11z"/>
<path d="M310 911 c0 -10 19 -25 25 -20 1 2 -3 10 -11 17 -8 7 -14 8 -14 3z"/>
<path d="M12 884 c-7 -8 -8 -14 -3 -14 10 0 25 19 20 25 -2 1 -10 -3 -17 -11z"/>
<path d="M256 893 c6 -4 14 -15 17 -23 5 -11 6 -9 4 4 -1 11 -9 21 -17 23 -10
3 -11 2 -4 -4z"/>
<path d="M80 873 c0 -21 21 -26 38 -9 9 9 11 16 5 16 -6 0 -14 -6 -16 -12 -4
-10 -8 -9 -16 2 -7 9 -11 10 -11 3z"/>
<path d="M335 869 c-11 -16 -1 -19 13 -3 7 8 8 14 3 14 -5 0 -13 -5 -16 -11z"/>
<path d="M1722 865 c-7 -8 -9 -15 -4 -15 5 0 15 7 22 15 16 19 -1 19 -18 0z"/>
<path d="M1835 869 c-11 -16 -1 -19 13 -3 7 8 8 14 3 14 -5 0 -13 -5 -16 -11z"/>
<path d="M1845 840 c-21 -22 -37 -41 -34 -43 2 -2 23 16 47 40 23 23 39 43 34
43 -4 0 -25 -18 -47 -40z"/>
<path d="M1974 865 c8 -8 18 -15 22 -15 3 0 1 7 -6 15 -7 8 -17 15 -22 15 -5
0 -3 -7 6 -15z"/>
<path d="M202 845 c-7 -8 -9 -15 -4 -15 5 0 15 7 22 15 16 19 -1 19 -18 0z"/>
<path d="M245 847 c-8 -9 0 -23 30 -52 l40 -41 33 33 c18 18 29 33 24 33 -5 0
-19 -11 -32 -25 l-24 -25 -32 31 c-18 17 -30 38 -27 45 6 17 2 17 -12 1z"/>
<path d="M1712 817 c24 -24 45 -42 47 -40 6 5 -71 83 -81 83 -5 0 11 -20 34
-43z"/>
<path d="M1745 847 c-8 -9 -2 -21 22 -45 18 -18 33 -29 33 -24 0 5 -11 19 -24
31 -14 13 -22 29 -19 37 6 17 2 17 -12 1z"/>
<path d="M1962 836 c13 -13 25 -22 27 -20 6 5 -30 44 -41 44 -5 0 2 -11 14
-24z"/>
<path d="M0 846 c0 -4 7 -14 15 -22 8 -9 15 -11 15 -6 0 5 -7 15 -15 22 -8 7
-15 9 -15 6z"/>
<path d="M115 800 c-21 -22 -37 -41 -34 -43 2 -2 23 16 47 40 23 23 39 43 34
43 -4 0 -25 -18 -47 -40z"/>
<path d="M1585 810 c-16 -16 -27 -31 -24 -33 2 -2 19 11 37 29 18 19 29 34 24
34 -4 0 -21 -13 -37 -30z"/>
<path d="M1857 812 c-15 -15 -27 -32 -27 -36 0 -5 14 7 32 25 19 22 33 29 35
22 3 -7 9 -13 15 -13 6 0 6 6 -2 15 -17 21 -22 19 -53 -13z"/>
<path d="M1954 805 c20 -19 39 -35 43 -35 4 0 -8 16 -27 35 -19 19 -38 35 -42
35 -5 0 7 -16 26 -35z"/>
<path d="M85 809 c-11 -16 -1 -19 13 -3 7 8 8 14 3 14 -5 0 -13 -5 -16 -11z"/>
<path d="M135 780 c-21 -22 -36 -43 -32 -46 4 -4 7 -2 7 4 0 7 5 12 11 12 6 0
8 -7 5 -16 -9 -23 22 -56 46 -48 20 6 25 -11 6 -19 -7 -3 -8 -6 -3 -6 6 -1 29
17 50 39 l39 40 -39 40 c-21 22 -42 40 -45 40 -3 0 -23 -18 -45 -40z m81 -5
l35 -35 -27 -27 c-21 -21 -28 -23 -35 -12 -8 12 -10 12 -18 0 -8 -12 -12 -11
-27 3 -14 15 -15 19 -3 27 12 8 12 10 0 18 -11 7 -9 14 10 34 13 14 25 26 27
26 1 1 18 -15 38 -34z"/>
<path d="M161 774 c-12 -14 -12 -17 0 -25 12 -8 12 -10 -1 -18 -8 -6 -11 -13
-7 -18 5 -4 12 -1 18 7 8 13 10 13 18 1 8 -12 12 -12 26 2 15 16 14 19 -9 42
-29 29 -27 29 -45 9z m36 -19 c8 -9 13 -19 10 -22 -6 -5 -37 21 -37 31 0 10
11 6 27 -9z"/>
<path d="M242 786 c18 -18 35 -31 37 -29 6 5 -51 63 -61 63 -5 0 6 -15 24 -34z"/>
<path d="M1540 805 c-7 -8 -9 -15 -6 -15 4 0 14 7 22 15 9 8 11 15 6 15 -5 0
-15 -7 -22 -15z"/>
<path d="M1605 790 c-16 -16 -27 -31 -24 -33 2 -2 19 11 37 29 18 19 29 34 24
34 -4 0 -21 -13 -37 -30z"/>
<path d="M1638 783 c-23 -25 -35 -47 -34 -64 1 -28 22 -59 39 -59 5 0 0 9 -13
20 -13 11 -20 23 -17 27 4 3 15 -1 25 -10 10 -10 23 -17 28 -17 5 0 2 4 -6 10
-8 5 -11 12 -7 16 4 4 15 0 25 -9 15 -16 15 -19 2 -27 -8 -5 -10 -10 -4 -10
15 0 69 58 61 67 -4 3 -7 1 -7 -5 0 -7 -5 -12 -11 -12 -6 0 -8 7 -5 16 4 10
-1 25 -10 36 -10 10 -14 21 -11 25 4 3 16 -4 27 -17 11 -13 20 -19 20 -13 0 9
-52 63 -61 63 -3 0 -21 -17 -41 -37z m52 18 c0 -5 -6 -11 -12 -14 -9 -3 -5
-12 12 -26 20 -19 22 -24 10 -32 -13 -8 -13 -10 0 -18 8 -6 11 -13 7 -17 -4
-4 -16 3 -27 17 -17 19 -23 21 -30 10 -7 -12 -11 -11 -25 2 -15 15 -14 19 17
51 34 35 48 43 48 27z"/>
<path d="M1641 754 c-7 -8 -10 -18 -6 -22 3 -3 10 0 16 8 8 13 10 13 18 0 6
-8 13 -11 17 -8 3 4 -1 14 -9 23 -19 18 -19 18 -36 -1z"/>
<path d="M0 806 c0 -4 11 -18 25 -32 14 -14 25 -21 25 -16 0 5 -11 19 -25 32
-14 13 -25 20 -25 16z"/>
<path d="M1856 771 c-14 -15 -26 -31 -26 -37 0 -5 4 -2 10 6 5 8 12 11 16 7 4
-4 -1 -16 -11 -27 -18 -20 -18 -21 10 -50 16 -17 33 -30 38 -30 5 0 -5 14 -23
30 -18 17 -30 34 -26 37 3 4 20 -6 36 -22 29 -28 30 -28 50 -10 11 10 23 15
27 12 3 -4 -4 -16 -17 -27 -13 -11 -19 -20 -13 -20 17 0 75 67 64 74 -6 4 -11
0 -11 -8 0 -9 -4 -16 -8 -16 -5 0 -9 14 -9 30 0 31 11 40 20 18 3 -7 6 -8 6
-2 2 19 -50 59 -79 60 -19 1 -37 -7 -54 -25z m47 7 c4 -10 8 -10 15 1 9 12 13
12 27 -2 15 -16 15 -18 0 -33 -9 -9 -19 -13 -23 -10 -3 4 0 11 8 16 8 5 11 12
7 17 -5 4 -12 1 -18 -7 -8 -13 -10 -13 -18 0 -6 8 -13 11 -18 7 -4 -5 -1 -12
7 -18 13 -8 13 -10 0 -18 -8 -6 -11 -13 -7 -18 5 -4 12 -1 17 7 5 8 12 11 17
7 4 -5 1 -12 -7 -17 -8 -5 -11 -12 -7 -16 3 -4 15 4 26 17 11 13 22 21 26 17
4 -4 -5 -19 -19 -33 l-26 -26 -26 27 c-22 21 -24 28 -13 35 12 8 12 10 0 18
-12 8 -12 11 0 25 17 19 26 20 32 4z"/>
<path d="M0 763 c0 -6 6 -14 13 -17 10 -5 10 -7 0 -12 -7 -3 -13 -11 -13 -17
0 -6 8 -4 17 6 16 16 16 18 0 34 -9 10 -17 12 -17 6z"/>
<path d="M80 722 c0 -10 78 -87 83 -81 2 2 -16 23 -40 47 -23 23 -43 39 -43
34z"/>
<path d="M11 693 c-7 -8 -11 -16 -8 -19 2 -2 10 2 17 11 17 20 9 27 -9 8z"/>
<path d="M32 673 c-19 -19 -32 -36 -30 -39 2 -2 20 12 38 31 18 19 32 36 29
38 -2 2 -19 -11 -37 -30z"/>
<path d="M222 674 c-18 -19 -29 -34 -24 -34 10 0 67 58 61 63 -2 2 -19 -11
-37 -29z"/>
<path d="M1492 674 c-18 -19 -29 -34 -24 -34 10 0 67 58 61 63 -2 2 -19 -11
-37 -29z"/>
<path d="M1722 674 c-18 -19 -29 -34 -24 -34 10 0 67 58 61 63 -2 2 -19 -11
-37 -29z"/>
<path d="M1790 702 c0 -11 39 -47 44 -41 2 2 -7 14 -20 27 -13 12 -24 19 -24
14z"/>
<path d="M52 653 c-18 -18 -29 -33 -24 -33 5 0 19 11 32 25 22 23 25 24 42 8
26 -23 30 -12 4 12 l-21 21 -33 -33z"/>
<path d="M282 654 c-18 -19 -29 -34 -24 -34 10 0 67 58 61 63 -2 2 -19 -11
-37 -29z"/>
<path d="M505 646 l-41 -41 33 -33 c18 -18 33 -29 33 -24 0 5 -11 19 -25 32
l-25 24 37 38 c20 21 35 39 32 41 -2 2 -22 -15 -44 -37z"/>
<path d="M1580 682 c0 -11 39 -47 44 -41 2 2 -7 14 -20 27 -13 12 -24 19 -24
14z"/>
<path d="M1745 656 l-31 -31 43 -43 c24 -23 43 -39 43 -34 0 5 -11 19 -25 32
l-25 24 22 23 c16 17 24 20 35 12 16 -14 17 -3 1 15 -10 11 -17 8 -39 -15 -14
-16 -29 -25 -33 -22 -3 4 6 19 21 35 14 15 25 29 22 31 -2 2 -18 -10 -34 -27z"/>
<path d="M242 654 c-7 -8 -8 -14 -3 -14 10 0 25 19 20 25 -2 1 -10 -3 -17 -11z"/>
<path d="M330 662 c0 -11 39 -47 44 -41 2 2 -7 14 -20 27 -13 12 -24 19 -24
14z"/>
<path d="M1495 636 l-31 -31 33 -33 c18 -18 33 -29 33 -24 0 5 -11 19 -25 32
-13 12 -22 27 -19 32 3 5 15 -1 26 -14 11 -13 18 -16 16 -8 -3 8 1 23 9 32 13
14 13 19 2 31 -12 11 -19 8 -44 -17z m32 -10 c-16 -18 -31 -8 -16 10 6 7 15
11 20 8 5 -3 3 -11 -4 -18z"/>
<path d="M1560 662 c0 -10 58 -67 63 -61 2 2 -11 19 -29 37 -19 18 -34 29 -34
24z"/>
<path d="M1962 644 c-12 -13 -19 -24 -14 -24 5 0 19 11 32 25 13 14 19 25 14
24 -5 0 -19 -11 -32 -25z"/>
<path d="M310 641 c0 -10 19 -25 25 -20 1 2 -3 10 -11 17 -8 7 -14 8 -14 3z"/>
<path d="M420 604 c-13 -13 -19 -24 -13 -24 6 0 13 6 16 13 2 7 16 0 35 -22
18 -18 32 -29 32 -24 0 5 -11 20 -25 33 -19 18 -22 26 -14 37 19 23 -5 13 -31
-13z"/>
<path d="M520 619 c0 -5 5 -7 10 -4 6 3 10 8 10 11 0 2 -4 4 -10 4 -5 0 -10
-5 -10 -11z"/>
<path d="M554 617 c-8 -9 -7 -16 1 -24 10 -9 13 -6 13 13 0 13 -1 24 -2 24 0
-1 -6 -6 -12 -13z"/>
<path d="M0 599 c0 -5 5 -7 10 -4 5 3 10 8 10 11 0 2 -4 4 -10 4 -5 0 -10 -5
-10 -11z"/>
<path d="M204 595 c8 -8 18 -15 22 -15 3 0 1 7 -6 15 -7 8 -17 15 -22 15 -5 0
-3 -7 6 -15z"/>
<path d="M242 596 c7 -8 15 -12 17 -11 5 6 -10 25 -20 25 -5 0 -4 -6 3 -14z"/>
<path d="M350 600 c12 -8 10 -14 -13 -38 -39 -40 -34 -49 7 -10 24 24 30 37
23 46 -5 6 -15 12 -21 12 -6 0 -4 -5 4 -10z"/>
<path d="M1640 595 c-7 -8 -9 -15 -6 -15 4 0 14 7 22 15 9 8 11 15 6 15 -5 0
-15 -7 -22 -15z"/>
<path d="M1722 576 c18 -18 35 -31 37 -29 6 5 -51 63 -61 63 -5 0 6 -15 24
-34z"/>
<path d="M1835 599 c-11 -16 -1 -19 13 -3 7 8 8 14 3 14 -5 0 -13 -5 -16 -11z"/>
<path d="M1974 595 c8 -8 18 -15 22 -15 3 0 1 7 -6 15 -7 8 -17 15 -22 15 -5
0 -3 -7 6 -15z"/>
<path d="M60 596 c0 -4 7 -14 15 -22 8 -9 15 -11 15 -6 0 5 -7 15 -15 22 -8 7
-15 9 -15 6z"/>
<path d="M315 579 c-11 -16 -1 -19 13 -3 7 8 8 14 3 14 -5 0 -13 -5 -16 -11z"/>
<path d="M1575 570 c-26 -29 -15 -32 13 -4 12 13 19 24 14 24 -5 0 -17 -9 -27
-20z"/>
<path d="M1835 560 c-16 -16 -27 -31 -24 -33 2 -2 19 11 37 29 18 19 29 34 24
34 -4 0 -21 -13 -37 -30z"/>
<path d="M1964 565 c14 -14 28 -25 32 -25 4 0 -3 11 -16 25 -13 14 -27 25 -32
25 -5 0 2 -11 16 -25z"/>
<path d="M40 576 c0 -4 7 -14 15 -22 8 -9 15 -11 15 -6 0 5 -7 15 -15 22 -8 7
-15 9 -15 6z"/>
<path d="M12 556 c7 -8 15 -12 17 -11 5 6 -10 25 -20 25 -5 0 -4 -6 3 -14z"/>
<path d="M105 559 c-11 -16 -1 -19 13 -3 7 8 8 14 3 14 -5 0 -13 -5 -16 -11z"/>
<path d="M125 540 c-16 -16 -27 -31 -24 -33 2 -2 19 11 37 29 18 19 29 34 24
34 -4 0 -21 -13 -37 -30z"/>
<path d="M210 550 c13 -11 20 -23 17 -27 -4 -3 -16 2 -27 12 -20 18 -21 18
-53 -13 l-32 -32 32 -32 c32 -31 33 -31 53 -13 11 10 23 15 27 12 3 -4 -4 -16
-17 -27 -13 -11 -19 -20 -14 -20 6 0 28 18 49 40 l39 40 -39 40 c-21 22 -43
40 -49 40 -5 0 1 -9 14 -20z m-8 -32 c15 -18 21 -20 28 -9 7 12 11 11 25 -2
15 -16 15 -18 0 -34 -14 -13 -18 -14 -25 -2 -7 11 -13 9 -29 -10 l-20 -23 -26
26 -26 26 23 24 c29 31 27 31 50 4z"/>
<path d="M162 504 c-11 -12 -10 -17 2 -30 15 -14 17 -14 32 0 14 14 14 18 0
31 -18 18 -18 18 -34 -1z m28 -14 c0 -5 -4 -10 -10 -10 -5 0 -10 5 -10 10 0 6
5 10 10 10 6 0 10 -4 10 -10z"/>
<path d="M230 490 c0 -5 5 -10 10 -10 6 0 10 5 10 10 0 6 -4 10 -10 10 -5 0
-10 -4 -10 -10z"/>
<path d="M262 536 c18 -18 35 -31 37 -29 6 5 -51 63 -61 63 -5 0 6 -15 24 -34z"/>
<path d="M355 540 c-16 -16 -27 -31 -24 -33 2 -2 19 11 37 29 18 19 29 34 24
34 -4 0 -21 -13 -37 -30z"/>
<path d="M385 530 l-39 -40 42 -42 42 -42 30 29 c16 16 30 33 30 38 0 6 -9 0
-20 -13 -11 -13 -23 -20 -27 -16 -4 3 6 20 22 36 l29 30 -29 30 c-16 17 -31
30 -35 30 -3 0 -24 -18 -45 -40z m72 4 c14 -14 22 -28 18 -32 -4 -4 -15 4 -26
17 -11 13 -23 21 -26 17 -4 -4 -1 -11 7 -16 8 -5 11 -12 7 -17 -5 -4 -12 -1
-17 7 -5 8 -12 11 -16 8 -3 -4 1 -15 11 -24 14 -14 18 -15 25 -3 5 7 12 10 16
6 4 -4 -3 -16 -17 -27 -19 -17 -21 -23 -9 -30 8 -5 11 -12 8 -15 -4 -4 -23 9
-43 29 l-36 36 33 34 c18 19 34 35 36 35 2 1 14 -11 29 -25z"/>
<path d="M380 494 c0 -10 31 -36 37 -31 3 3 -2 13 -10 22 -16 15 -27 19 -27 9z"/>
<path d="M1595 550 c-26 -29 -15 -32 13 -4 12 13 19 24 14 24 -5 0 -17 -9 -27
-20z"/>
<path d="M1627 542 c-18 -19 -25 -35 -21 -45 3 -10 2 -17 -4 -17 -6 0 -13 6
-15 13 -3 6 -6 7 -6 1 -2 -19 50 -59 79 -60 21 -1 38 9 66 37 l38 39 -29 30
c-16 16 -33 30 -38 30 -5 0 5 -14 23 -30 18 -17 30 -34 26 -37 -3 -4 -19 6
-34 21 -19 17 -35 24 -45 20 -10 -3 -17 -2 -17 4 0 6 6 13 13 15 6 3 7 6 1 6
-5 1 -22 -12 -37 -27z m26 -14 c4 -10 8 -10 15 1 8 11 15 9 36 -13 l27 -26
-26 -26 c-23 -23 -27 -24 -41 -9 -9 9 -13 19 -10 23 4 3 11 0 16 -8 5 -8 12
-11 17 -7 4 5 1 12 -7 18 -13 8 -13 10 0 18 8 6 11 13 7 18 -5 4 -12 1 -18 -7
-8 -13 -10 -13 -18 0 -6 8 -13 11 -18 7 -4 -5 -1 -12 7 -17 8 -5 11 -12 8 -16
-4 -3 -14 1 -23 10 -13 13 -14 18 -3 30 16 19 25 20 31 4z m-13 -63 c17 -21 5
-31 -15 -12 -8 9 -15 18 -15 21 0 11 18 6 30 -9z"/>
<path d="M1690 490 c0 -5 5 -10 10 -10 6 0 10 5 10 10 0 6 -4 10 -10 10 -5 0
-10 -4 -10 -10z"/>
<path d="M1857 542 c-15 -15 -27 -32 -27 -37 0 -4 9 2 20 15 11 13 23 20 27
16 4 -3 -6 -20 -22 -36 l-29 -30 29 -30 c16 -16 33 -30 38 -30 5 0 -5 14 -23
30 -18 17 -30 34 -26 37 3 4 20 -6 36 -22 l30 -29 32 32 32 32 -39 40 c-21 22
-42 40 -45 40 -4 0 -18 -13 -33 -28z m60 -8 c14 -14 22 -28 19 -32 -4 -3 -11
0 -16 8 -5 8 -12 11 -17 7 -4 -5 -1 -12 7 -17 8 -5 11 -12 7 -17 -5 -4 -12 -1
-17 7 -5 8 -12 11 -16 7 -4 -3 4 -15 17 -26 13 -11 21 -22 17 -26 -4 -4 -19 5
-33 19 l-27 27 24 21 c15 14 19 22 11 25 -13 5 -18 23 -8 23 3 0 17 -12 32
-26z m43 -40 c0 -3 -7 -12 -15 -21 -20 -19 -32 -9 -15 12 12 15 30 20 30 9z"/>
<path d="M1952 536 c18 -18 35 -31 37 -29 6 5 -51 63 -61 63 -5 0 6 -15 24
-34z"/>
<path d="M21 473 c-12 -13 -21 -26 -19 -29 3 -2 15 7 28 21 13 14 22 27 19 29
-2 2 -15 -8 -28 -21z"/>
<path d="M100 472 c0 -10 58 -67 63 -61 2 2 -11 19 -29 37 -19 18 -34 29 -34
24z"/>
<path d="M560 473 c0 -5 18 -27 40 -48 38 -37 41 -38 57 -22 10 9 12 17 6 17
-6 0 -13 -6 -16 -12 -2 -8 -20 4 -45 30 -23 24 -42 40 -42 35z"/>
<path d="M1722 444 c-18 -19 -29 -34 -24 -34 10 0 67 58 61 63 -2 2 -19 -11
-37 -29z"/>
<path d="M21 433 c-12 -13 -21 -26 -19 -29 3 -2 15 7 28 21 13 14 22 27 19 29
-2 2 -15 -8 -28 -21z"/>
<path d="M80 452 c0 -10 58 -67 63 -61 2 2 -11 19 -29 37 -19 18 -34 29 -34
24z"/>
<path d="M242 424 c-18 -19 -29 -34 -24 -34 10 0 67 58 61 63 -2 2 -19 -11
-37 -29z"/>
<path d="M310 452 c0 -10 58 -67 63 -61 2 2 -11 19 -29 37 -19 18 -34 29 -34
24z"/>
<path d="M350 452 c0 -10 58 -67 63 -61 2 2 -11 19 -29 37 -19 18 -34 29 -34
24z"/>
<path d="M475 426 l-31 -31 33 -33 c18 -18 33 -29 33 -24 0 5 -11 19 -25 32
l-25 24 27 28 c14 15 25 29 22 31 -2 2 -18 -10 -34 -27z"/>
<path d="M540 452 c0 -10 58 -67 63 -61 2 2 -11 19 -29 37 -19 18 -34 29 -34
24z"/>
<path d="M1580 452 c0 -11 39 -47 44 -41 2 2 -7 14 -20 27 -13 12 -24 19 -24
14z"/>
<path d="M1742 424 c-18 -19 -29 -34 -24 -34 10 0 67 58 61 63 -2 2 -19 -11
-37 -29z"/>
<path d="M1810 452 c0 -11 39 -47 44 -41 2 2 -7 14 -20 27 -13 12 -24 19 -24
14z"/>
<path d="M1932 424 c-18 -19 -29 -34 -24 -34 10 0 67 58 61 63 -2 2 -19 -11
-37 -29z"/>
<path d="M60 432 c0 -11 39 -47 44 -41 2 2 -7 14 -20 27 -13 12 -24 19 -24 14z"/>
<path d="M502 414 c-12 -13 -19 -24 -14 -24 11 0 47 39 41 44 -2 2 -14 -7 -27
-20z"/>
<path d="M1462 414 c-12 -13 -19 -24 -14 -24 11 0 47 39 41 44 -2 2 -14 -7
-27 -20z"/>
<path d="M1520 431 c0 -7 -4 -9 -10 -6 -5 3 -10 -1 -10 -9 0 -9 -5 -16 -11
-16 -6 0 -4 -7 5 -15 8 -8 18 -15 22 -15 5 0 3 5 -4 12 -9 9 -8 16 5 30 9 10
13 21 10 25 -4 3 -7 1 -7 -6z"/>
<path d="M1790 432 c0 -5 6 -15 14 -22 8 -6 12 -19 9 -28 -6 -14 -5 -15 9 -2
9 8 13 17 9 20 -3 3 -14 13 -24 23 -9 10 -17 14 -17 9z"/>
<path d="M1962 414 c-12 -13 -19 -24 -14 -24 5 0 19 11 32 25 13 14 19 25 14
24 -5 0 -19 -11 -32 -25z"/>
<path d="M32 404 c-7 -8 -8 -14 -3 -14 10 0 25 19 20 25 -2 1 -10 -3 -17 -11z"/>
<path d="M252 394 c-12 -13 -19 -24 -14 -24 11 0 47 39 41 44 -2 2 -14 -7 -27
-20z"/>
<path d="M302 404 c-14 -15 -16 -28 -3 -20 5 4 11 2 13 -3 1 -5 8 -4 14 3 8 8
8 15 0 22 -8 8 -15 7 -24 -2z"/>
<path d="M532 404 c-7 -8 -8 -14 -3 -14 10 0 25 19 20 25 -2 1 -10 -3 -17 -11z"/>
<path d="M1580 411 c0 -10 19 -25 25 -20 1 2 -3 10 -11 17 -8 7 -14 8 -14 3z"/>
<path d="M560 391 c0 -10 19 -25 25 -20 1 2 -3 10 -11 17 -8 7 -14 8 -14 3z"/>
<path d="M1560 392 c0 -11 39 -47 44 -41 2 2 -7 14 -20 27 -13 12 -24 19 -24
14z"/>
<path d="M1643 383 c16 -16 18 -16 34 0 10 9 12 17 6 17 -6 0 -14 -6 -17 -12
-5 -10 -7 -10 -12 0 -3 6 -11 12 -17 12 -6 0 -4 -8 6 -17z"/>
<path d="M1742 384 c-7 -8 -8 -14 -3 -14 10 0 25 19 20 25 -2 1 -10 -3 -17
-11z"/>
<path d="M1825 360 c-21 -22 -37 -41 -34 -43 2 -2 23 16 47 40 23 23 39 43 34
43 -4 0 -25 -18 -47 -40z"/>
<path d="M1974 387 c-8 -9 -7 -16 2 -25 18 -16 29 -15 15 1 -8 10 -7 17 1 25
7 7 8 12 3 12 -6 -1 -15 -6 -21 -13z"/>
<path d="M264 367 c-8 -9 -7 -16 1 -24 10 -9 13 -6 13 13 0 13 -1 24 -2 24 0
-1 -6 -6 -12 -13z"/>
<path d="M472 327 c29 -30 55 -52 57 -50 6 5 -91 103 -101 103 -5 0 15 -24 44
-53z"/>
<path d="M606 364 c-5 -14 -4 -15 9 -4 17 14 19 20 6 20 -5 0 -12 -7 -15 -16z"/>
<path d="M607 332 c-26 -26 -47 -51 -47 -56 0 -4 18 11 40 34 23 24 44 40 47
36 4 -3 -11 -24 -32 -46 -21 -22 -36 -43 -32 -46 4 -4 7 -2 7 4 0 7 5 12 11
12 6 0 8 -8 5 -18 -4 -12 1 -26 14 -37 19 -17 21 -17 40 0 11 10 23 15 27 12
3 -4 -4 -16 -17 -27 -13 -11 -19 -20 -14 -20 6 0 27 18 49 40 l39 40 -29 30
c-19 20 -35 28 -47 24 -10 -3 -18 -1 -18 5 0 6 5 11 11 11 8 0 7 5 -2 16 -10
13 -10 17 2 25 8 5 9 9 4 9 -6 0 -32 -22 -58 -48z m46 -34 c4 -10 8 -10 15 1
8 11 15 9 37 -13 24 -24 25 -27 10 -43 -14 -13 -18 -14 -25 -2 -7 11 -13 9
-29 -10 -19 -22 -21 -22 -37 -6 -15 14 -15 18 -3 26 12 8 12 10 0 18 -12 8
-12 11 0 25 17 19 26 20 32 4z"/>
<path d="M630 281 c0 -5 6 -12 13 -14 9 -4 8 -8 -3 -16 -8 -5 -11 -13 -7 -17
4 -4 16 3 27 17 17 19 23 21 30 9 5 -8 12 -11 16 -8 3 4 -1 15 -11 24 -14 15
-18 15 -27 3 -7 -11 -11 -11 -15 -1 -5 14 -23 16 -23 3z"/>
<path d="M1355 350 c-16 -16 -27 -31 -24 -33 2 -2 19 11 37 29 18 19 29 34 24
34 -4 0 -21 -13 -37 -30z"/>
<path d="M1482 356 c13 -13 25 -22 27 -20 6 5 -30 44 -41 44 -5 0 2 -11 14
-24z"/>
<path d="M1855 350 c-16 -16 -27 -31 -24 -33 2 -2 19 11 37 29 18 19 29 34 24
34 -4 0 -21 -13 -37 -30z"/>
<path d="M1912 365 c-7 -8 -9 -15 -4 -15 5 0 15 7 22 15 16 19 -1 19 -18 0z"/>
<path d="M75 340 c-26 -29 -15 -32 13 -4 12 13 19 24 14 24 -5 0 -17 -9 -27
-20z"/>
<path d="M357 353 c-4 -3 -7 -11 -7 -17 0 -6 4 -4 10 4 5 8 12 11 16 7 4 -4
-9 -24 -29 -45 -20 -21 -37 -42 -37 -46 0 -5 8 1 19 12 22 26 36 29 27 6 -4
-10 1 -25 10 -36 10 -10 14 -21 11 -25 -4 -3 -15 3 -25 15 -18 20 -18 20 -60
-24 -44 -47 -46 -61 -2 -19 l26 25 24 -25 c13 -14 28 -25 33 -25 5 0 -5 14
-23 30 -18 17 -30 34 -26 37 3 4 24 -11 46 -32 l40 -39 53 52 52 52 -42 42
c-41 41 -42 42 -63 23 -11 -10 -23 -15 -28 -10 -4 4 -1 10 6 12 10 4 10 8 1
19 -13 15 -22 18 -32 7z m109 -59 c20 -19 33 -38 29 -42 -4 -4 -20 8 -37 26
-16 19 -32 31 -36 27 -3 -3 0 -10 8 -15 8 -5 11 -12 7 -17 -5 -4 -12 -1 -17 7
-5 8 -12 11 -17 7 -4 -5 -1 -12 7 -18 13 -8 13 -10 0 -19 -13 -9 -13 -11 0
-19 8 -6 11 -13 8 -17 -4 -3 -19 6 -34 21 -22 22 -24 29 -13 36 12 8 12 10 -1
18 -8 6 -11 13 -7 18 5 4 12 1 17 -7 8 -13 12 -11 27 7 10 13 19 23 21 23 1 0
19 -16 38 -36z m0 -39 c13 -13 11 -19 -21 -51 -20 -20 -39 -33 -43 -29 -4 4 4
16 17 27 19 15 22 21 12 28 -11 6 -11 11 0 24 17 19 17 19 35 1z m-66 -55 c0
-5 -4 -10 -10 -10 -5 0 -10 5 -10 10 0 6 5 10 10 10 6 0 10 -4 10 -10z"/>
<path d="M380 260 c0 -5 5 -10 10 -10 6 0 10 5 10 10 0 6 -4 10 -10 10 -5 0
-10 -4 -10 -10z"/>
<path d="M440 240 c0 -5 5 -10 10 -10 6 0 10 5 10 10 0 6 -4 10 -10 10 -5 0
-10 -4 -10 -10z"/>
<path d="M545 349 c-11 -16 -1 -19 13 -3 7 8 8 14 3 14 -5 0 -13 -5 -16 -11z"/>
<path d="M703 348 c-7 -9 -1 -22 23 -46 19 -18 34 -29 34 -24 0 5 -11 19 -25
32 -14 13 -23 30 -21 37 7 16 1 17 -11 1z"/>
<path d="M1367 322 c-20 -21 -37 -42 -37 -46 0 -4 14 6 30 24 17 18 34 30 37
26 4 -3 -6 -19 -20 -34 -15 -16 -27 -32 -27 -38 0 -5 4 -2 10 6 5 8 12 11 16
7 4 -4 -1 -16 -11 -27 -18 -20 -18 -21 13 -53 l32 -31 40 39 c22 21 43 36 46
32 4 -3 -12 -24 -36 -47 -23 -22 -38 -40 -33 -40 5 0 26 18 48 40 37 38 38 40
21 59 -10 11 -15 25 -11 31 11 18 -45 71 -67 64 -20 -6 -25 11 -5 19 6 3 7 6
2 6 -6 1 -28 -16 -48 -37z m90 -18 c21 -21 23 -28 12 -35 -12 -8 -12 -10 0
-18 11 -7 6 -17 -23 -45 l-36 -37 -26 26 c-14 15 -23 29 -19 33 4 4 15 -4 26
-17 11 -13 23 -21 26 -17 4 4 1 11 -7 16 -8 5 -11 12 -7 17 5 4 12 1 17 -7 5
-8 12 -11 17 -7 4 5 1 12 -7 18 -13 8 -13 10 0 18 8 6 11 13 7 17 -4 4 -16 -3
-27 -16 -11 -13 -23 -20 -27 -16 -4 4 -1 11 7 17 13 8 13 10 1 18 -11 7 -9 14
10 34 13 14 25 26 27 26 2 1 15 -11 29 -25z"/>
<path d="M1411 294 c-7 -8 -10 -18 -6 -22 3 -3 10 0 16 8 8 13 10 13 18 0 6
-8 13 -11 17 -8 3 4 -1 14 -9 23 -19 18 -19 18 -36 -1z"/>
<path d="M1440 240 c0 -5 5 -10 10 -10 6 0 10 5 10 10 0 6 -4 10 -10 10 -5 0
-10 -4 -10 -10z"/>
<path d="M1482 317 l43 -43 31 31 c17 16 29 32 27 34 -2 3 -16 -8 -31 -22
l-28 -27 -34 35 c-19 19 -38 35 -42 35 -5 0 11 -19 34 -43z"/>
<path d="M1595 320 c-21 -22 -37 -41 -34 -43 2 -2 23 16 47 40 23 23 39 43 34
43 -4 0 -25 -18 -47 -40z"/>
<path d="M1964 335 c14 -14 28 -25 32 -25 4 0 -3 11 -16 25 -13 14 -27 25 -32
25 -5 0 2 -11 16 -25z"/>
<path d="M0 346 c0 -4 11 -18 25 -32 14 -14 25 -21 25 -16 0 5 -11 19 -25 32
-14 13 -25 20 -25 16z"/>
<path d="M310 342 c0 -7 5 -12 11 -12 5 0 7 -5 4 -10 -5 -8 -11 -7 -21 1 -17
14 -19 2 -1 -15 10 -11 15 -10 26 1 11 13 11 17 -3 31 -10 11 -16 12 -16 4z"/>
<path d="M572 338 c-7 -7 -12 -16 -12 -21 0 -5 7 -1 16 8 9 9 14 18 12 20 -2
3 -10 -1 -16 -7z"/>
<path d="M730 347 c0 -4 16 -23 35 -43 19 -19 35 -31 35 -26 0 4 -16 23 -35
42 -19 19 -35 31 -35 27z"/>
<path d="M85 310 c-16 -16 -27 -31 -24 -33 2 -2 19 11 37 29 18 19 29 34 24
34 -4 0 -21 -13 -37 -30z"/>
<path d="M126 311 c-14 -15 -26 -31 -26 -36 0 -4 9 2 20 15 11 13 23 20 27 17
3 -4 -1 -15 -11 -25 -9 -11 -14 -26 -10 -36 3 -9 2 -16 -4 -16 -6 0 -13 6 -15
13 -3 6 -6 7 -6 1 -1 -15 57 -69 66 -61 3 4 1 7 -5 7 -7 0 -12 5 -12 11 0 6 7
8 16 5 10 -4 25 1 36 10 10 10 21 14 24 11 4 -4 -8 -20 -26 -37 -18 -16 -28
-30 -23 -30 19 0 64 57 57 73 -3 10 -1 17 5 17 6 0 11 -5 11 -12 0 -6 3 -8 7
-4 4 3 -11 24 -32 46 -21 22 -36 43 -32 46 3 4 20 -8 37 -26 16 -18 30 -28 30
-23 0 5 -12 20 -26 34 -35 33 -76 33 -108 0z m70 -16 l35 -35 -27 -27 c-21
-21 -28 -23 -35 -12 -8 12 -10 12 -18 -1 -6 -8 -13 -11 -18 -7 -4 5 -1 12 7
18 13 8 13 10 0 18 -12 8 -10 13 10 32 17 14 21 23 13 26 -13 5 -18 23 -8 23
3 0 21 -16 41 -35z"/>
<path d="M162 274 c-11 -12 -10 -17 2 -30 15 -14 17 -14 32 0 14 14 14 18 0
31 -18 18 -18 18 -34 -1z m28 -14 c0 -5 -4 -10 -10 -10 -5 0 -10 5 -10 10 0 6
5 10 10 10 6 0 10 -4 10 -10z"/>
<path d="M252 316 c13 -13 25 -22 27 -20 6 5 -30 44 -41 44 -5 0 2 -11 14 -24z"/>
<path d="M1615 300 c-21 -22 -36 -43 -32 -46 4 -4 7 -2 7 4 0 7 5 12 11 12 6
0 8 -7 5 -17 -7 -16 38 -73 57 -73 6 0 0 9 -13 20 -13 11 -20 23 -17 27 4 3
16 -2 27 -12 20 -18 21 -18 42 3 21 21 21 22 3 42 -10 11 -15 23 -12 27 4 3
16 -4 27 -17 11 -13 20 -19 20 -14 0 10 -72 84 -81 84 -3 0 -22 -18 -44 -40z
m62 14 c14 -13 14 -17 2 -24 -11 -7 -9 -13 10 -29 22 -19 22 -21 7 -37 -16
-15 -18 -15 -37 7 -17 19 -22 21 -29 9 -5 -8 -12 -11 -16 -8 -3 4 1 15 11 24
14 14 18 15 25 3 5 -7 12 -10 17 -6 4 5 1 12 -7 18 -13 8 -13 10 0 18 8 6 11
13 7 17 -3 4 -15 -4 -26 -17 -11 -13 -22 -21 -26 -17 -6 5 32 55 43 57 2 1 11
-6 19 -15z"/>
<path d="M1670 240 c0 -5 5 -10 10 -10 6 0 10 5 10 10 0 6 -4 10 -10 10 -5 0
-10 -4 -10 -10z"/>
<path d="M1732 297 c24 -24 45 -42 47 -40 6 5 -71 83 -81 83 -5 0 11 -20 34
-43z"/>
<path d="M1752 316 c13 -13 25 -22 27 -20 6 5 -30 44 -41 44 -5 0 2 -11 14
-24z"/>
<path d="M1857 312 c-15 -15 -27 -32 -27 -37 0 -4 9 2 20 15 11 13 23 20 27
16 4 -3 -6 -20 -22 -36 l-29 -30 39 -40 c22 -22 43 -40 49 -40 5 0 -1 9 -14
20 -13 11 -20 23 -16 27 3 4 19 -5 34 -20 23 -23 25 -29 12 -37 -8 -5 -10 -10
-4 -10 5 0 25 16 44 35 19 19 30 35 26 35 -5 0 -17 -10 -27 -22 -11 -11 -22
-18 -27 -14 -4 4 7 20 25 36 24 21 28 31 20 40 -9 10 -9 14 1 17 10 4 4 15
-19 39 -18 19 -38 34 -43 34 -6 0 -4 -4 4 -10 8 -5 11 -12 7 -16 -4 -4 -15 0
-25 9 -24 22 -24 22 -55 -11z m60 -8 c14 -14 22 -28 19 -32 -4 -3 -11 0 -16 8
-5 8 -12 11 -17 7 -4 -5 -1 -12 7 -17 8 -5 11 -12 7 -17 -5 -4 -12 -1 -17 7
-5 8 -12 11 -16 7 -4 -4 3 -16 16 -27 13 -11 20 -23 16 -27 -4 -4 -11 -1 -17
7 -8 13 -10 13 -18 1 -8 -12 -12 -12 -26 3 -16 15 -15 18 17 48 21 19 28 33
21 35 -13 5 -18 23 -8 23 3 0 17 -12 32 -26z m50 -9 c8 -9 13 -19 9 -22 -7 -7
-36 16 -36 28 0 13 10 11 27 -6z m-1 -40 c13 -13 12 -18 -11 -41 -14 -14 -29
-23 -33 -19 -4 4 4 15 17 26 13 11 21 23 17 26 -4 4 -11 1 -16 -7 -5 -8 -12
-11 -15 -8 -6 6 13 36 23 38 2 0 10 -7 18 -15z"/>
<path d="M1860 240 c0 -5 5 -10 10 -10 6 0 10 5 10 10 0 6 -4 10 -10 10 -5 0
-10 -4 -10 -10z"/>
<path d="M0 303 c0 -6 6 -14 13 -17 10 -5 10 -7 0 -12 -7 -3 -13 -11 -13 -17
0 -6 8 -4 17 6 16 16 16 18 0 34 -9 10 -17 12 -17 6z"/>
<path d="M1270 306 c0 -4 7 -14 15 -22 8 -9 15 -11 15 -6 0 5 -7 15 -15 22 -8
7 -15 9 -15 6z"/>
<path d="M31 253 c-7 -8 -11 -16 -8 -19 2 -2 10 2 17 11 17 20 9 27 -9 8z"/>
<path d="M560 242 c0 -10 78 -87 83 -81 2 2 -16 23 -40 47 -23 23 -43 39 -43
34z"/>
<path d="M1712 203 c-23 -23 -39 -43 -34 -43 10 0 87 78 81 83 -2 2 -23 -16
-47 -40z"/>
<path d="M22 204 c-12 -13 -19 -24 -14 -24 11 0 47 39 41 44 -2 2 -14 -7 -27
-20z"/>
<path d="M80 222 c0 -10 58 -67 63 -61 2 2 -11 19 -29 37 -19 18 -34 29 -34
24z"/>
<path d="M242 194 c-18 -19 -29 -34 -24 -34 10 0 67 58 61 63 -2 2 -19 -11
-37 -29z"/>
<path d="M492 214 c-7 -8 -8 -14 -3 -14 10 0 25 19 20 25 -2 1 -10 -3 -17 -11z"/>
<path d="M702 194 c-18 -19 -29 -34 -24 -34 10 0 67 58 61 63 -2 2 -19 -11
-37 -29z"/>
<path d="M742 194 c-18 -19 -29 -34 -24 -34 10 0 67 58 61 63 -2 2 -19 -11
-37 -29z"/>
<path d="M1233 184 c-36 -36 -40 -44 -27 -55 12 -10 21 -6 53 25 33 32 39 35
51 21 7 -8 17 -15 22 -15 5 0 -2 10 -14 23 l-23 23 -38 -39 c-21 -22 -41 -37
-44 -33 -4 3 11 24 32 46 21 22 37 41 34 43 -2 2 -23 -15 -46 -39z"/>
<path d="M1310 222 c0 -10 78 -87 83 -81 2 2 -16 23 -40 47 -23 23 -43 39 -43
34z"/>
<path d="M1580 222 c0 -10 58 -67 63 -61 2 2 -11 19 -29 37 -19 18 -34 29 -34
24z"/>
<path d="M1742 194 c-18 -19 -29 -34 -24 -34 10 0 67 58 61 63 -2 2 -19 -11
-37 -29z"/>
<path d="M31 172 c-18 -18 -31 -35 -29 -38 3 -2 17 10 33 26 l29 30 28 -27
c15 -14 29 -25 31 -22 2 2 -10 18 -27 34 l-31 31 -34 -34z"/>
<path d="M504 186 c-18 -19 -19 -24 -7 -35 12 -11 17 -10 32 3 13 12 20 13 29
4 7 -7 12 -9 12 -4 0 4 -6 13 -13 21 -12 11 -16 10 -27 -5 -8 -11 -18 -16 -22
-13 -5 3 -2 14 8 24 24 27 14 31 -12 5z"/>
<path d="M560 202 c0 -4 11 -19 25 -32 14 -13 23 -30 20 -38 -4 -12 -3 -13 10
-2 13 11 13 14 -3 29 -9 9 -25 24 -35 34 -9 10 -17 14 -17 9z"/>
<path d="M762 173 c-18 -18 -29 -33 -24 -33 5 0 19 11 32 25 18 19 26 22 37
14 7 -6 10 -16 7 -21 -4 -6 -9 -6 -14 2 -5 7 -7 2 -7 -14 0 -26 0 -26 17 -6
12 14 20 16 28 8 7 -7 13 -10 15 -7 2 2 -10 18 -27 34 l-31 31 -33 -33z"/>
<path d="M1492 173 c-18 -18 -29 -33 -24 -33 5 0 19 11 32 25 l24 25 23 -22
c30 -28 30 -14 1 15 l-23 23 -33 -33z"/>
<path d="M1765 175 l-31 -30 23 -23 c13 -13 23 -19 23 -14 0 5 -7 15 -15 22
-14 12 -13 16 6 36 21 23 24 23 41 7 26 -23 30 -12 4 12 l-21 21 -30 -31z"/>
<path d="M1830 202 c0 -10 58 -67 63 -61 2 2 -11 19 -29 37 -19 18 -34 29 -34
24z"/>
<path d="M302 174 c-7 -8 -8 -14 -3 -14 10 0 25 19 20 25 -2 1 -10 -3 -17 -11z"/>
<path d="M452 175 c-7 -8 -9 -15 -4 -15 5 0 15 7 22 15 16 19 -1 19 -18 0z"/>
<path d="M952 174 c-7 -8 -8 -14 -3 -14 10 0 25 19 20 25 -2 1 -10 -3 -17 -11z"/>
<path d="M1030 175 c-8 -9 -8 -15 -2 -15 12 0 26 19 19 26 -2 2 -10 -2 -17
-11z"/>
<path d="M1580 181 c0 -10 19 -25 25 -20 1 2 -3 10 -11 17 -8 7 -14 8 -14 3z"/>
<path d="M1061 171 c-1 -7 -14 -25 -30 -40 l-29 -26 24 -23 c27 -25 33 -18 8
9 -15 17 -14 20 11 42 16 13 25 29 22 38 -4 11 -6 11 -6 0z"/>
<path d="M330 161 c0 -10 19 -25 25 -20 1 2 -3 10 -11 17 -8 7 -14 8 -14 3z"/>
<path d="M1265 137 l-31 -32 23 -23 c13 -13 23 -19 23 -14 0 5 -7 15 -15 22
-8 7 -12 16 -9 22 3 5 14 -1 25 -13 10 -12 19 -17 19 -12 0 6 -7 16 -15 23 -8
7 -12 17 -9 22 4 6 9 6 14 -2 5 -7 8 -2 8 14 0 14 -1 26 -2 25 0 0 -15 -15
-31 -32z"/>
<path d="M1505 146 l-21 -21 33 -33 c18 -18 33 -29 33 -24 0 5 -11 19 -25 32
-23 22 -24 25 -8 42 23 26 12 30 -12 4z"/>
<path d="M1782 154 c-7 -8 -8 -14 -3 -14 10 0 25 19 20 25 -2 1 -10 -3 -17
-11z"/>
<path d="M1974 157 c-8 -9 -7 -16 2 -25 18 -16 29 -15 15 1 -8 10 -7 17 1 25
7 7 8 12 3 12 -6 -1 -15 -6 -21 -13z"/>
<path d="M40 140 c0 -6 4 -9 9 -6 5 4 12 1 14 -4 3 -6 4 -5 3 2 -3 15 -26 23
-26 8z"/>
<path d="M83 124 c0 -14 2 -21 6 -17 3 4 9 10 12 13 4 3 1 10 -6 17 -10 9 -12
6 -12 -13z"/>
<path d="M172 125 c15 -14 31 -25 35 -25 4 0 -4 11 -19 25 -15 14 -31 25 -35
25 -4 0 4 -11 19 -25z"/>
<path d="M242 136 c7 -8 15 -12 17 -11 5 6 -10 25 -20 25 -5 0 -4 -6 3 -14z"/>
<path d="M313 124 c0 -14 2 -21 6 -17 3 4 9 10 12 13 4 3 1 10 -6 17 -10 9
-12 6 -12 -13z"/>
<path d="M944 125 c14 -14 28 -25 32 -25 4 0 -3 11 -16 25 -13 14 -27 25 -32
25 -5 0 2 -11 16 -25z"/>
<path d="M1620 135 c7 -8 17 -15 22 -15 5 0 3 7 -6 15 -8 8 -18 15 -22 15 -3
0 -1 -7 6 -15z"/>
<path d="M1835 139 c-11 -16 -1 -19 13 -3 7 8 8 14 3 14 -5 0 -13 -5 -16 -11z"/>
<path d="M126 114 c-5 -14 -4 -15 9 -4 17 14 19 20 6 20 -5 0 -12 -7 -15 -16z"/>
<path d="M232 106 c13 -13 25 -22 27 -20 6 5 -30 44 -41 44 -5 0 2 -11 14 -24z"/>
<path d="M455 114 c15 -16 18 -16 33 0 10 10 12 16 4 16 -7 0 -12 -5 -12 -12
0 -9 -3 -9 -12 0 -7 7 -16 12 -21 12 -5 0 -1 -7 8 -16z"/>
<path d="M605 100 c-16 -16 -27 -31 -24 -33 2 -2 19 11 37 29 18 19 29 34 24
34 -4 0 -21 -13 -37 -30z"/>
<path d="M722 116 c7 -8 15 -12 17 -11 5 6 -10 25 -20 25 -5 0 -4 -6 3 -14z"/>
<path d="M834 103 c-1 -13 1 -21 5 -16 3 4 10 10 14 14 4 3 2 11 -5 17 -10 8
-13 5 -14 -15z"/>
<path d="M940 90 c24 -23 40 -44 36 -47 -3 -4 -20 6 -36 22 l-30 29 -30 -29
c-16 -16 -33 -26 -36 -22 -4 4 3 16 16 27 13 11 19 20 13 20 -5 0 -18 -9 -28
-20 -15 -16 -16 -22 -5 -35 11 -13 15 -13 22 -3 6 10 10 10 17 -2 6 -8 13 -11
18 -7 4 5 1 12 -7 17 -8 5 -11 12 -7 17 5 4 12 1 18 -7 8 -13 10 -13 18 0 6 8
13 11 18 7 4 -5 1 -12 -7 -17 -8 -5 -11 -12 -7 -17 5 -4 12 -1 18 7 7 12 11
12 17 2 7 -10 11 -10 22 3 11 14 8 21 -25 55 -22 22 -43 40 -48 40 -5 0 10
-18 33 -40z m-20 -20 c0 -5 -4 -10 -10 -10 -5 0 -10 5 -10 10 0 6 5 10 10 10
6 0 10 -4 10 -10z"/>
<path d="M1355 119 c-11 -16 -1 -19 13 -3 7 8 8 14 3 14 -5 0 -13 -5 -16 -11z"/>
<path d="M1482 87 c24 -24 45 -42 47 -40 6 5 -71 83 -81 83 -5 0 11 -20 34
-43z"/>
<path d="M1585 119 c-11 -16 -1 -19 13 -3 7 8 8 14 3 14 -5 0 -13 -5 -16 -11z"/>
<path d="M1845 110 c-26 -29 -15 -32 13 -4 12 13 19 24 14 24 -5 0 -17 -9 -27
-20z"/>
<path d="M1944 85 c25 -25 49 -45 53 -45 4 0 -13 20 -37 45 -24 25 -48 45 -52
45 -5 0 12 -20 36 -45z"/>
<path d="M1964 105 c14 -14 28 -25 32 -25 4 0 -3 11 -16 25 -13 14 -27 25 -32
25 -5 0 2 -11 16 -25z"/>
<path d="M0 112 c0 -6 6 -12 13 -15 9 -3 9 -7 -1 -19 -10 -13 -10 -17 0 -21
10 -4 10 -8 -2 -16 -8 -5 -11 -13 -7 -18 5 -4 12 -1 18 7 8 13 10 13 19 0 9
-13 11 -13 20 0 5 8 10 20 10 25 0 6 -4 4 -9 -4 -8 -12 -12 -13 -25 -1 -9 7
-14 21 -11 30 3 9 -1 23 -10 30 -9 7 -15 8 -15 2z"/>
<path d="M792 97 c-31 -33 -27 -43 4 -12 14 14 24 28 22 31 -3 2 -14 -6 -26
-19z"/>
<path d="M52 96 c7 -8 15 -12 17 -11 5 6 -10 25 -20 25 -5 0 -4 -6 3 -14z"/>
<path d="M328 93 c-17 -19 -22 -73 -7 -73 5 0 9 4 9 10 0 5 11 21 25 35 31 31
21 34 -12 3 -14 -13 -23 -17 -23 -8 0 7 10 21 22 31 11 11 17 19 11 19 -5 0
-17 -8 -25 -17z"/>
<path d="M387 72 c-20 -21 -37 -42 -37 -46 0 -5 8 1 19 12 24 28 34 28 25 0
-6 -23 -6 -23 15 1 12 13 24 21 28 17 4 -3 -2 -15 -13 -25 -17 -15 -36 -18
-125 -17 -94 1 -104 2 -91 16 12 11 16 12 20 2 5 -17 19 -15 26 4 7 17 -19 54
-37 54 -6 0 0 -9 13 -20 13 -11 20 -23 16 -27 -3 -4 -20 6 -36 22 l-30 29 -30
-29 c-16 -16 -30 -33 -30 -38 0 -6 8 0 19 11 24 28 34 28 25 0 -6 -23 -6 -23
15 1 12 13 24 21 28 18 3 -4 -2 -16 -11 -26 -16 -17 -29 -19 -96 -17 -43 2
-84 -1 -92 -5 -7 -5 438 -9 990 -9 636 0 1001 4 997 10 -3 5 -13 6 -22 3 -11
-5 -14 -3 -9 6 12 19 -43 73 -66 65 -10 -3 -18 -1 -18 5 0 6 5 11 12 11 6 0 8
3 5 7 -8 7 -67 -46 -67 -60 0 -6 9 0 20 13 11 13 23 20 27 17 3 -4 -1 -15 -10
-25 -10 -10 -17 -23 -17 -28 0 -5 5 -2 10 6 9 13 11 13 20 0 9 -13 11 -13 20
0 9 13 11 13 20 0 9 -13 11 -13 19 0 6 8 13 11 17 7 18 -18 -22 -22 -216 -23
l-209 -1 -48 49 c-26 26 -51 48 -56 48 -4 0 15 -22 43 -50 28 -27 46 -50 39
-50 -7 0 -32 19 -56 42 l-43 42 -30 -29 c-16 -16 -30 -33 -30 -38 0 -6 9 0 20
13 11 13 23 20 27 17 3 -4 -2 -15 -11 -26 -13 -14 -30 -19 -66 -18 -27 0 -47
4 -43 9 6 10 -45 68 -60 68 -5 0 6 -14 24 -31 26 -25 30 -32 18 -40 -19 -12
-32 -11 -24 2 11 16 -26 50 -47 43 -10 -3 -18 -1 -18 5 0 6 5 11 12 11 6 0 8
3 5 7 -10 9 -69 -49 -63 -62 3 -8 -55 -11 -194 -11 -113 0 -196 4 -193 9 6 10
-45 67 -60 67 -6 0 0 -9 13 -20 13 -11 20 -23 17 -27 -4 -3 -15 1 -25 11 -11
9 -26 14 -36 10 -9 -3 -16 -1 -16 5 0 6 5 11 12 11 6 0 8 3 5 7 -8 7 -67 -46
-67 -60 0 -6 9 0 20 13 11 13 23 20 27 16 4 -3 -1 -14 -10 -24 -14 -13 -36
-17 -106 -17 -79 -1 -86 1 -73 15 12 11 16 12 20 2 5 -17 19 -15 26 5 6 15
-37 73 -54 73 -3 0 -23 -17 -43 -38z m70 2 c14 -14 22 -28 19 -31 -3 -4 -15 4
-26 18 -17 19 -23 21 -30 9 -5 -8 -12 -11 -15 -8 -6 6 13 36 23 38 2 0 14 -12
29 -26z m-267 -4 c0 -5 -4 -10 -10 -10 -5 0 -10 5 -10 10 0 6 5 10 10 10 6 0
10 -4 10 -10z m1254 -23 l33 -33 -48 0 -47 0 21 19 c15 14 18 21 10 24 -13 5
-18 23 -8 23 3 0 21 -15 39 -33z m483 18 c8 -9 13 -19 9 -22 -7 -7 -36 16 -36
28 0 13 10 11 27 -6z m-1245 -27 c16 -19 21 -20 28 -8 5 8 12 11 16 7 14 -13
-6 -21 -60 -22 l-54 -2 22 23 c26 28 25 28 48 2z m491 10 c4 -10 8 -10 15 1 9
12 13 12 28 -3 22 -23 5 -35 -43 -31 -42 3 -49 9 -32 29 17 19 26 20 32 4z
m727 2 c0 -5 -4 -10 -10 -10 -5 0 -10 5 -10 10 0 6 5 10 10 10 6 0 10 -4 10
-10z"/>
<path d="M1420 30 c0 -5 5 -10 10 -10 6 0 10 5 10 10 0 6 -4 10 -10 10 -5 0
-10 -4 -10 -10z"/>
<path d="M650 30 c0 -5 5 -10 10 -10 6 0 10 5 10 10 0 6 -4 10 -10 10 -5 0
-10 -4 -10 -10z"/>
<path d="M1150 30 c0 -5 5 -10 10 -10 6 0 10 5 10 10 0 6 -4 10 -10 10 -5 0
-10 -4 -10 -10z"/>
<path d="M1190 30 c0 -5 5 -10 10 -10 6 0 10 5 10 10 0 6 -4 10 -10 10 -5 0
-10 -4 -10 -10z"/>
<path d="M552 96 c7 -8 15 -12 17 -11 5 6 -10 25 -20 25 -5 0 -4 -6 3 -14z"/>
<path d="M1100 95 c-10 -12 -16 -13 -26 -4 -17 14 -18 3 -2 -15 11 -11 16 -10
30 6 9 10 19 15 22 10 3 -6 -1 -15 -9 -22 -8 -7 -15 -17 -15 -22 0 -5 10 2 23
14 19 18 21 26 11 36 -16 15 -19 15 -34 -3z"/>
<path d="M1365 90 c-26 -29 -15 -32 13 -4 12 13 19 24 14 24 -5 0 -17 -9 -27
-20z"/>
<path d="M1752 86 c13 -13 25 -22 27 -20 6 5 -30 44 -41 44 -5 0 2 -11 14 -24z"/>
<path d="M520 96 c0 -4 7 -14 15 -22 8 -9 15 -11 15 -6 0 5 -7 15 -15 22 -8 7
-15 9 -15 6z"/>
<path d="M105 60 c-16 -16 -26 -32 -24 -34 3 -3 19 10 37 29 38 43 27 47 -13
5z"/>
<path d="M501 69 c16 -15 20 -23 12 -26 -15 -5 -18 -23 -4 -23 5 0 12 7 15 16
7 17 -19 54 -37 54 -6 0 1 -10 14 -21z"/>
<path d="M722 76 c7 -8 15 -12 17 -11 5 6 -10 25 -20 25 -5 0 -4 -6 3 -14z"/>
<path d="M1001 69 c19 -16 21 -22 9 -29 -8 -5 -11 -12 -7 -17 5 -4 12 -1 18 7
8 13 10 13 19 0 5 -8 10 -10 10 -4 0 12 -52 64 -65 64 -4 0 3 -9 16 -21z"/>
<path d="M1585 79 c-11 -16 -1 -19 13 -3 7 8 8 14 3 14 -5 0 -13 -5 -16 -11z"/>
<path d="M1616 71 c-9 -10 -14 -25 -10 -35 7 -19 20 -21 27 -3 4 9 8 8 16 -3
10 -13 12 -13 21 0 9 13 11 13 20 0 9 -13 11 -13 21 0 8 11 12 12 16 3 7 -18
20 -16 27 3 7 17 -19 54 -37 54 -6 0 0 -9 13 -20 13 -11 20 -23 17 -27 -4 -3
-15 1 -24 9 -22 18 -64 18 -87 -1 -26 -22 -32 -4 -6 19 13 11 19 20 13 20 -5
0 -17 -8 -27 -19z m54 -21 c0 -5 -4 -10 -10 -10 -5 0 -10 5 -10 10 0 6 5 10
10 10 6 0 10 -4 10 -10z m40 0 c0 -5 -4 -10 -10 -10 -5 0 -10 5 -10 10 0 6 5
10 10 10 6 0 10 -4 10 -10z"/>
<path d="M802 68 c-7 -7 -12 -16 -12 -21 0 -5 7 -1 16 8 9 9 14 18 12 20 -2 3
-10 -1 -16 -7z"/>
<path d="M283 44 c-15 -16 -16 -24 -4 -24 8 0 24 30 19 35 -2 2 -9 -3 -15 -11z"/>
<path d="M553 44 c-15 -16 -16 -24 -4 -24 8 0 24 30 19 35 -2 2 -9 -3 -15 -11z"/>
</g>
</svg>
